<svg xmlns="http://www.w3.org/2000/svg" viewBox="0 0 31.546 19.628"><defs><style>.a{fill:#c4c4c4;}</style></defs><path class="a" d="M28.488,84.025h-7.9V82.061h7.9v1.963ZM15.322,92.076a5.191,5.191,0,0,1,.765,2.875,5.726,5.726,0,0,1-.872,3.132,5.43,5.43,0,0,1-1.389,1.542,5.365,5.365,0,0,1-2.215.985,13.7,13.7,0,0,1-2.771.265H0V81.247H9.479c2.389.039,4.083.731,5.084,2.091a5,5,0,0,1,.9,3,4.369,4.369,0,0,1-.907,2.89,4.627,4.627,0,0,1-1.495,1.117A4.358,4.358,0,0,1,15.322,92.076Zm-10.8-3.09H8.68a3.936,3.936,0,0,0,2.075-.487,1.855,1.855,0,0,0,.8-1.726A1.757,1.757,0,0,0,10.5,84.962a7.415,7.415,0,0,0-2.317-.307H4.527Zm7.424,5.685a2.1,2.1,0,0,0-1.248-2.1,4.919,4.919,0,0,0-1.963-.333H4.527v5.231H8.675a4.609,4.609,0,0,0,1.988-.344A2.475,2.475,0,0,0,11.951,94.671Zm19.47-3.193a18.464,18.464,0,0,1,.121,2.792H21.305a3.361,3.361,0,0,0,1.469,2.967,3.7,3.7,0,0,0,2.026.528,2.855,2.855,0,0,0,2.8-1.61h3.752a4.57,4.57,0,0,1-1.362,2.541,6.829,6.829,0,0,1-5.288,2.053,7.674,7.674,0,0,1-4.953-1.73q-2.141-1.734-2.144-5.632a7.613,7.613,0,0,1,1.935-5.605,6.781,6.781,0,0,1,5.03-1.95,8.016,8.016,0,0,1,3.306.658A5.694,5.694,0,0,1,30.3,88.569,6.94,6.94,0,0,1,31.421,91.477Zm-3.693.366a3.07,3.07,0,0,0-.982-2.222,3.2,3.2,0,0,0-2.179-.761,2.915,2.915,0,0,0-2.193.806,3.789,3.789,0,0,0-.98,2.177h6.334Z" transform="translate(0 -81.247)"/></svg>