<svg viewBox="0 0 521 124" xmlns="http://www.w3.org/2000/svg"><path fill="#7dffc2" d="M7 78h514v20H7z"/><path d="M49.6 84.3c-2.4 1.9-5.4 3.3-9.2 4.4-3.8 1-8.4 1.5-13.9 1.5S15.2 89.7 9 88.7V25c6.3-1 11.7-1.5 16.3-1.5s8.4.4 11.3 1.3 5.4 2 7.2 3.5c3.7 2.9 5.5 6.6 5.5 11.1 0 4.6-1.7 8.3-5 11.3 3.9 1.2 7 3.5 9.1 7 2 3.1 2.9 6.5 2.9 10.2s-.5 6.9-1.6 9.5c-1 2.7-2.7 5-5.1 6.9zM21.8 49c1.4.2 3 .3 5.1.3s3.7-.3 5-.8 2.3-1.2 3-2c1.2-1.3 1.7-3.2 1.7-5.5 0-4.9-2.9-7.4-8.7-7.4-2.4 0-4.5.1-6.1.3V49zm7.1 10.4c-2.7 0-5.1.2-7.2.5v19c2.3.6 4.6.9 7.1.9s4.7-.3 6.5-.9c1.9-.6 3.5-1.4 4.8-2.4 2.6-2.1 3.9-4.8 3.9-8.1.1-6.1-5-9-15.1-9zM69.4 64c0-3.5.6-6.9 1.8-10.2 1.2-3.2 2.9-6.1 5.2-8.5 4.9-5.2 11.3-7.8 19.2-7.8 7.8 0 14.1 2.5 18.7 7.4 4.4 4.7 6.6 10.8 6.6 18.3s-2.3 13.7-6.8 18.7c-4.8 5.2-11.2 7.8-19.1 7.8-8.2 0-14.6-2.6-19.2-7.7-4.3-4.6-6.4-10.6-6.4-18zm11.7-.3c0 2 .3 4 1 5.9s1.6 3.5 2.9 4.9c2.7 2.9 6.2 4.4 10.5 4.4 4 0 7.2-1.4 9.5-4.3 2.3-2.8 3.4-6.4 3.4-10.8 0-4.5-1.2-8.2-3.5-10.9-2.5-3-5.9-4.4-10.2-4.4-4.4 0-7.8 1.6-10.3 4.7-2.2 2.8-3.3 6.4-3.3 10.5zm53.5.3c0-3.5.6-6.9 1.8-10.2 1.2-3.2 2.9-6.1 5.2-8.5 4.9-5.2 11.3-7.8 19.2-7.8 7.8 0 14.1 2.5 18.7 7.4 4.4 4.7 6.6 10.8 6.6 18.3s-2.3 13.7-6.8 18.7c-4.8 5.2-11.2 7.8-19.1 7.8-8.2 0-14.6-2.6-19.2-7.7-4.2-4.6-6.4-10.6-6.4-18zm11.8-.3c0 2 .3 4 1 5.9s1.6 3.5 2.9 4.9c2.7 2.9 6.2 4.4 10.5 4.4 4 0 7.2-1.4 9.5-4.3 2.3-2.8 3.4-6.4 3.4-10.8 0-4.5-1.2-8.2-3.5-10.9-2.5-3-5.9-4.4-10.2-4.4-4.4 0-7.8 1.6-10.3 4.7-2.2 2.8-3.3 6.4-3.3 10.5zm69.8 18.9c0 2.8.1 4.9.3 6.4h-12.2V19.9h11.8v42.3l22.1-23.7h14.4l-19 20.1 10.9 14.8c2.4 3.7 4.1 6.5 5.3 8.2l3.2 4.5c1 1.3 1.8 2.2 2.4 2.9h-7.6c-2.8 0-5.3.2-7.3.7l-15.1-22-9.2 9.8v5.1zM265 64c0-3.5.6-6.9 1.8-10.2 1.2-3.2 2.9-6.1 5.2-8.5 4.9-5.2 11.3-7.8 19.2-7.8 7.8 0 14 2.5 18.7 7.4 4.4 4.7 6.6 10.8 6.6 18.3s-2.3 13.7-6.8 18.7c-4.8 5.2-11.2 7.8-19.1 7.8-8.2 0-14.6-2.6-19.2-7.7-4.3-4.6-6.4-10.6-6.4-18zm11.8-.3c0 2 .3 4 1 5.9s1.6 3.5 2.9 4.9c2.7 2.9 6.2 4.4 10.5 4.4 4 0 7.2-1.4 9.5-4.3 2.3-2.8 3.4-6.4 3.4-10.8 0-4.5-1.2-8.2-3.5-10.9-2.5-3-5.9-4.4-10.2-4.4-4.4 0-7.8 1.6-10.3 4.7-2.2 2.8-3.3 6.4-3.3 10.5zM346.6 88v14.2c0 2.8.1 4.6.2 5.4h-12V38.5h11.8v3.1c3.9-2.7 7.6-4.1 11.2-4.1s6.8.5 9.5 1.5c2.8 1 5.2 2.5 7.3 4.6 4.6 4.5 6.9 11 6.9 19.4 0 5.6-1.3 10.6-3.9 14.9-2.2 3.7-5.3 6.7-9.2 8.9-3.5 2-7.3 2.9-11.3 2.9s-7.6-.5-10.5-1.7zm0-12.2c2.4 2.1 5.6 3.1 9.5 3.1 6.4 0 10.5-3.1 12.4-9.2.6-2.1 1-4.3 1-6.7s-.2-4.3-.7-5.8c-.5-1.4-1-2.7-1.8-3.7-.7-1-1.5-1.9-2.4-2.6s-1.8-1.2-2.8-1.7c-1.6-.7-3.3-1.1-5.1-1.1s-3.5.4-5.4 1.2-3.4 1.9-4.7 3.2v23.3zm82.7 8.8c-4.1 3.4-8.6 5.1-13.5 5.1-5.2 0-9.3-1.8-12.3-5.3-2.8-3.4-4.3-8.1-4.3-14.1V51.1c0-6.4-.1-10.1-.4-11.1s-.5-1.6-.6-1.8c1.5.1 3 .2 4.6.2h4c1.1 0 2.5 0 4.2-.1v28c0 6.6 1.8 10.5 5.4 11.6 1.1.3 2.3.5 3.6.5 3.8 0 6.9-1.4 9.2-4.2V38.5h12v44.3c0 2.8.1 4.9.4 6.2h-12.4v-4.4zm51.9 5.1c-9.1 0-15.9-1.7-20.5-5 .1-1 .2-2.1.3-3.3l.4-3.5c.3-2.3.4-3.7.5-4.3s.1-.9.1-.9.3.2.8.8 1.4 1.2 2.8 2.1c1.4.8 2.9 1.5 4.7 2.1 3.8 1.3 7.8 2 12 2 5.6 0 8.4-1.9 8.4-5.6 0-1.2-.5-2.1-1.6-2.7-1.9-1-4.7-1.7-8.4-2.2S474 68 471.6 67s-4.3-2.1-5.8-3.5c-2.7-2.5-4.1-5.9-4.1-10 0-5 1.9-9 5.8-11.8 3.8-2.8 9.1-4.3 15.9-4.3 6.7 0 12.4 1.9 17.2 5.7-.2.8-.5 1.6-.7 2.4-.7 2.1-1.3 3.7-1.6 4.6l-1.1 2.9c-.1.3-.1.4-.1.4-.1 0-.3-.3-.8-1-2-2.4-5.2-3.9-9.5-4.6-1.3-.3-2.7-.4-4.1-.4-5.9 0-8.8 1.8-8.8 5.3 0 1.2.6 2.2 1.8 2.8 2.3 1.2 5.4 2.1 9.4 2.7s7 1.4 9.1 2.3c2.1 1 3.7 2.2 5 3.6 2.3 2.5 3.5 5.8 3.5 10 0 4.5-1.8 8.2-5.5 11.1-3.9 3-9.2 4.5-16 4.5z" fill="#222"/></svg>