<?xml version="1.0" encoding="utf-8"?>
<!-- Generator: Adobe Illustrator 22.0.0, SVG Export Plug-In . SVG Version: 6.00 Build 0)  -->
<svg version="1.1" id="Layer_1" xmlns="http://www.w3.org/2000/svg" xmlns:xlink="http://www.w3.org/1999/xlink" x="0px" y="0px"
	 viewBox="0 0 1040 225" style="enable-background:new 0 0 1040 225;" xml:space="preserve">
<style type="text/css">
	.st0{fill:#404040; stroke-dasharray: 0;}
</style>
<g>
	<path class="st0" d="M50.6,57.4c-1.2-0.5-2.1-1.2-2.7-2.1c-0.6-0.9-0.9-2-0.9-3.2v-0.9c0-0.3,0.1-0.4,0.4-0.4h1.4
		c0.3,0,0.4,0.1,0.4,0.4V52c0,1.2,0.5,2.2,1.5,3s2.4,1.2,4.1,1.2c1.6,0,2.9-0.3,3.7-1c0.9-0.7,1.3-1.6,1.3-2.8
		c0-0.7-0.2-1.4-0.6-1.9c-0.4-0.5-1-1-1.8-1.5c-0.8-0.5-2-1-3.5-1.6c-1.6-0.6-2.8-1.2-3.7-1.7c-0.9-0.5-1.6-1.1-2.1-1.9
		c-0.5-0.8-0.8-1.7-0.8-2.9c0-1.8,0.6-3.2,1.9-4.2s3-1.5,5.2-1.5c2.3,0,4.2,0.6,5.6,1.7c1.4,1.1,2,2.6,2,4.4v0.6
		c0,0.3-0.1,0.4-0.4,0.4h-1.4c-0.3,0-0.4-0.1-0.4-0.4v-0.5c0-1.2-0.5-2.3-1.4-3s-2.3-1.2-4.1-1.2c-1.5,0-2.7,0.3-3.5,0.9
		c-0.8,0.6-1.2,1.5-1.2,2.7c0,0.8,0.2,1.4,0.6,1.9c0.4,0.5,1,0.9,1.7,1.3c0.7,0.4,1.9,0.9,3.4,1.5c1.6,0.6,2.8,1.2,3.8,1.8
		c1,0.6,1.7,1.2,2.3,2c0.6,0.8,0.9,1.8,0.9,2.9c0,1.8-0.7,3.2-2,4.3s-3.1,1.6-5.5,1.6C53.1,58.2,51.7,57.9,50.6,57.4z"/>
	<path class="st0" d="M67.4,38.3c-0.3-0.3-0.5-0.7-0.5-1.2c0-0.5,0.2-0.9,0.5-1.2c0.3-0.3,0.7-0.4,1.2-0.4s0.9,0.1,1.2,0.4
		c0.3,0.3,0.5,0.7,0.5,1.2c0,0.5-0.2,0.9-0.5,1.2c-0.3,0.3-0.7,0.5-1.2,0.5S67.7,38.6,67.4,38.3z M67.5,57.5V42.1
		c0-0.3,0.1-0.4,0.4-0.4h1.4c0.3,0,0.4,0.1,0.4,0.4v15.4c0,0.3-0.1,0.4-0.4,0.4h-1.4C67.6,57.9,67.5,57.8,67.5,57.5z"/>
	<path class="st0" d="M82.7,43.6h-3.5c-0.1,0-0.2,0.1-0.2,0.2v9.3c0,1,0.2,1.7,0.7,2.2c0.5,0.4,1.2,0.6,2.2,0.6h0.7
		c0.3,0,0.4,0.1,0.4,0.4v1.1c0,0.3-0.1,0.4-0.4,0.4h-1.1c-1.5,0-2.7-0.3-3.5-0.9c-0.8-0.6-1.2-1.6-1.2-3.2v-10
		c0-0.1-0.1-0.2-0.2-0.2h-1.8c-0.3,0-0.4-0.1-0.4-0.4v-1.1c0-0.3,0.1-0.4,0.4-0.4h1.8c0.1,0,0.2-0.1,0.2-0.2V38
		c0-0.3,0.1-0.4,0.4-0.4h1.4c0.3,0,0.4,0.1,0.4,0.4v3.6c0,0.1,0.1,0.2,0.2,0.2h3.5c0.3,0,0.4,0.1,0.4,0.4v1.1
		C83.1,43.5,83,43.6,82.7,43.6z"/>
	<path class="st0" d="M96.6,55.5c0.7-0.4,1.2-1,1.6-1.7c0-0.1,0.1-0.2,0.2-0.2c0.1,0,0.2,0,0.3,0l0.9,0.5c0.3,0.1,0.3,0.3,0.2,0.5
		c-0.5,1.1-1.3,1.9-2.3,2.5c-1,0.6-2.2,0.9-3.6,0.9c-1.5,0-2.8-0.4-3.8-1.1c-1-0.7-1.8-1.7-2.2-2.9c-0.4-1.1-0.6-2.5-0.6-4.4
		c0-0.9,0-1.6,0-2.2c0-0.5,0.1-1.1,0.2-1.5c0.4-1.4,1.1-2.5,2.2-3.3c1.1-0.8,2.4-1.2,4-1.2c1.9,0,3.3,0.5,4.4,1.4
		c1.1,1,1.7,2.3,2,4.1c0.1,0.7,0.2,1.7,0.2,3.2c0,0.3-0.1,0.4-0.4,0.4H89.8c-0.1,0-0.2,0.1-0.2,0.2c0,1.1,0.1,1.8,0.2,2.3
		c0.2,1,0.7,1.7,1.5,2.3c0.8,0.6,1.7,0.8,2.9,0.8C95.1,56.2,95.9,56,96.6,55.5z M91.2,44.3c-0.7,0.5-1.1,1.3-1.3,2.2
		c-0.1,0.4-0.2,1.2-0.3,2.2c0,0.1,0.1,0.2,0.2,0.2H98c0.1,0,0.2-0.1,0.2-0.2c0-0.9-0.1-1.6-0.2-2c-0.2-1-0.7-1.7-1.4-2.3
		c-0.7-0.6-1.6-0.8-2.7-0.8C92.8,43.4,91.9,43.7,91.2,44.3z"/>
	<path class="st0" d="M104.3,63.9v-1.1c0-0.3,0.1-0.4,0.2-0.4h0.2c0.8,0,1.5-0.1,1.9-0.4c0.5-0.2,0.9-0.7,1.2-1.2
		c0.3-0.6,0.7-1.5,1.1-2.8c0,0,0-0.1,0-0.2l-5.4-15.6c0,0,0-0.1,0-0.2c0-0.1,0-0.2,0.1-0.2s0.2-0.1,0.3-0.1h1.5
		c0.3,0,0.4,0.1,0.5,0.4l4.1,12.5c0,0.1,0.1,0.1,0.1,0.1c0,0,0.1,0,0.1-0.1l4-12.5c0.1-0.2,0.2-0.4,0.4-0.4h1.5c0.1,0,0.3,0,0.3,0.1
		c0.1,0.1,0.1,0.2,0,0.4l-5.9,17.1c-0.5,1.4-1,2.5-1.4,3.2c-0.4,0.7-1,1.2-1.7,1.4c-0.7,0.3-1.6,0.4-2.8,0.4h-0.2
		C104.4,64.3,104.3,64.2,104.3,63.9z"/>
	<path class="st0" d="M129.1,55.5c0.7-0.4,1.2-1,1.6-1.7c0-0.1,0.1-0.2,0.2-0.2c0.1,0,0.2,0,0.3,0l0.9,0.5c0.3,0.1,0.3,0.3,0.2,0.5
		c-0.5,1.1-1.3,1.9-2.3,2.5c-1,0.6-2.2,0.9-3.6,0.9c-1.5,0-2.8-0.4-3.8-1.1c-1-0.7-1.8-1.7-2.2-2.9c-0.4-1.1-0.6-2.5-0.6-4.4
		c0-0.9,0-1.6,0-2.2c0-0.5,0.1-1.1,0.2-1.5c0.4-1.4,1.1-2.5,2.2-3.3c1.1-0.8,2.4-1.2,4-1.2c1.9,0,3.3,0.5,4.4,1.4
		c1.1,1,1.7,2.3,2,4.1c0.1,0.7,0.2,1.7,0.2,3.2c0,0.3-0.1,0.4-0.4,0.4h-10.2c-0.1,0-0.2,0.1-0.2,0.2c0,1.1,0.1,1.8,0.2,2.3
		c0.2,1,0.7,1.7,1.5,2.3c0.8,0.6,1.7,0.8,2.9,0.8C127.6,56.2,128.4,56,129.1,55.5z M123.7,44.3c-0.7,0.5-1.1,1.3-1.3,2.2
		c-0.1,0.4-0.2,1.2-0.3,2.2c0,0.1,0.1,0.2,0.2,0.2h8.2c0.1,0,0.2-0.1,0.2-0.2c0-0.9-0.1-1.6-0.2-2c-0.2-1-0.7-1.7-1.4-2.3
		c-0.7-0.6-1.6-0.8-2.7-0.8C125.2,43.4,124.4,43.7,123.7,44.3z"/>
	<path class="st0" d="M155.8,41.7h1.4c0.3,0,0.4,0.1,0.4,0.4v15.2c0,2.4-0.7,4.1-2.1,5.2c-1.4,1.1-3.3,1.7-5.7,1.7c-0.4,0-0.8,0-1,0
		c-0.3,0-0.4-0.2-0.4-0.4l0.1-1.3c0-0.3,0.1-0.4,0.4-0.4c2.3,0.1,3.9-0.2,4.9-1s1.5-2,1.5-3.8v-1.1c0-0.1,0-0.1-0.1-0.1
		c0,0-0.1,0-0.1,0.1c-1,1.3-2.4,1.9-4.2,1.9c-1.4,0-2.6-0.4-3.7-1.1c-1.1-0.7-1.8-1.8-2.2-3.2c-0.3-0.9-0.4-2.2-0.4-3.9
		c0-0.9,0-1.7,0.1-2.4c0.1-0.6,0.2-1.2,0.3-1.7c0.4-1.3,1.1-2.3,2.1-3.1c1-0.8,2.2-1.2,3.6-1.2c1.9,0,3.3,0.6,4.3,1.8
		c0,0.1,0.1,0.1,0.1,0.1c0,0,0.1-0.1,0.1-0.1v-1.1C155.4,41.8,155.5,41.7,155.8,41.7z M155.4,51.8c0-0.5,0-1.2,0-2
		c0-1.1,0-1.8,0-2.2c0-0.4-0.1-0.7-0.2-1c-0.2-0.9-0.6-1.6-1.3-2.2c-0.7-0.6-1.5-0.9-2.5-0.9c-1,0-1.9,0.3-2.5,0.9
		c-0.7,0.6-1.2,1.3-1.5,2.2c-0.2,0.7-0.3,1.7-0.3,3.2c0,1.6,0.1,2.6,0.3,3.2c0.2,0.9,0.7,1.6,1.4,2.2c0.7,0.6,1.6,0.9,2.6,0.9
		c1,0,1.9-0.3,2.6-0.9s1.1-1.3,1.3-2.2C155.3,52.7,155.3,52.3,155.4,51.8z"/>
	<path class="st0" d="M163.4,38.3c-0.3-0.3-0.5-0.7-0.5-1.2c0-0.5,0.2-0.9,0.5-1.2c0.3-0.3,0.7-0.4,1.2-0.4s0.9,0.1,1.2,0.4
		c0.3,0.3,0.5,0.7,0.5,1.2c0,0.5-0.2,0.9-0.5,1.2c-0.3,0.3-0.7,0.5-1.2,0.5S163.8,38.6,163.4,38.3z M163.6,57.5V42.1
		c0-0.3,0.1-0.4,0.4-0.4h1.4c0.3,0,0.4,0.1,0.4,0.4v15.4c0,0.3-0.1,0.4-0.4,0.4H164C163.7,57.9,163.6,57.8,163.6,57.5z"/>
	<path class="st0" d="M180.2,41.9c0.2,0.1,0.3,0.3,0.2,0.5l-0.3,1.4c-0.1,0.3-0.2,0.3-0.5,0.3c-0.4-0.1-0.9-0.2-1.6-0.2
		c-1.1,0-2,0.5-2.8,1.2c-0.7,0.8-1.1,1.8-1.1,3v9.3c0,0.3-0.1,0.4-0.4,0.4h-1.4c-0.3,0-0.4-0.1-0.4-0.4V42.1c0-0.3,0.1-0.4,0.4-0.4
		h1.4c0.3,0,0.4,0.1,0.4,0.4v1.8c0,0.1,0,0.1,0,0.1c0,0,0.1,0,0.1-0.1c0.4-0.8,1-1.4,1.7-1.8c0.7-0.4,1.5-0.6,2.4-0.6
		C179.2,41.5,179.8,41.7,180.2,41.9z"/>
	<path class="st0" d="M184.5,38.3c-0.3-0.3-0.5-0.7-0.5-1.2c0-0.5,0.2-0.9,0.5-1.2c0.3-0.3,0.7-0.4,1.2-0.4s0.9,0.1,1.2,0.4
		c0.3,0.3,0.5,0.7,0.5,1.2c0,0.5-0.2,0.9-0.5,1.2c-0.3,0.3-0.7,0.5-1.2,0.5S184.9,38.6,184.5,38.3z M184.7,57.5V42.1
		c0-0.3,0.1-0.4,0.4-0.4h1.4c0.3,0,0.4,0.1,0.4,0.4v15.4c0,0.3-0.1,0.4-0.4,0.4h-1.4C184.8,57.9,184.7,57.8,184.7,57.5z"/>
	<path class="st0" d="M203,56.5c-0.9,0.8-2.1,1.3-3.6,1.5c-0.1,0-0.1,0.1-0.1,0.2c1.1,0.9,1.6,1.9,1.6,2.9c0,0.3,0,0.5-0.1,0.7
		c-0.2,0.7-0.5,1.2-1,1.5c-0.5,0.3-1.1,0.4-1.7,0.4c-0.4,0-0.8-0.1-1.2-0.2c-0.3-0.1-0.4-0.2-0.3-0.5l0.1-0.5c0-0.3,0.2-0.4,0.5-0.3
		c0.3,0,0.4,0.1,0.6,0.1c0.5,0,0.9-0.1,1.2-0.4c0.3-0.2,0.4-0.6,0.4-1.1c0-0.9-0.6-1.8-1.7-2.8c-0.1,0-0.1-0.1-0.2-0.1
		c-1.5-0.1-2.8-0.6-3.7-1.4c-0.9-0.8-1.4-1.7-1.4-2.8v-0.3c0-0.3,0.1-0.4,0.4-0.4h1.4c0.1,0,0.2,0,0.3,0.1c0.1,0.1,0.1,0.1,0.1,0.2
		v0.3c0,0.7,0.4,1.3,1.1,1.8c0.7,0.5,1.6,0.8,2.8,0.8s2-0.3,2.7-0.8c0.7-0.5,1-1.1,1-1.9c0-0.5-0.2-1-0.5-1.3
		c-0.3-0.3-0.8-0.6-1.2-0.8c-0.5-0.2-1.2-0.4-2.2-0.7c-1.2-0.3-2.2-0.7-2.9-1s-1.4-0.8-2-1.4c-0.5-0.6-0.8-1.4-0.8-2.3
		c0-1.4,0.5-2.5,1.6-3.3c1.1-0.8,2.5-1.2,4.2-1.2c1.2,0,2.2,0.2,3.1,0.6c0.9,0.4,1.6,0.9,2.1,1.6s0.7,1.4,0.7,2.3
		c0,0.3-0.1,0.4-0.4,0.4h-1.3c-0.3,0-0.4-0.1-0.4-0.2V46c0-0.7-0.3-1.3-1-1.8c-0.7-0.5-1.6-0.7-2.8-0.7c-1.1,0-2,0.2-2.6,0.7
		c-0.7,0.4-1,1-1,1.8c0,0.7,0.3,1.3,0.9,1.7c0.6,0.4,1.6,0.8,3,1.2c1.2,0.3,2.2,0.7,3,1c0.8,0.3,1.4,0.8,2,1.4
		c0.6,0.6,0.8,1.4,0.8,2.4C204.3,54.7,203.9,55.7,203,56.5z"/>
</g>
<g>
	<path class="st0" d="M79.1,185.8v-21.6c0-0.3,0.1-0.4,0.4-0.4H81c0.3,0,0.4,0.1,0.4,0.4V175c0,0.1,0,0.1,0.1,0.1c0,0,0.1,0,0.1-0.1
		l10-10.9c0.1-0.1,0.3-0.2,0.5-0.2h1.6c0.2,0,0.4,0.1,0.4,0.3c0,0.1,0,0.2-0.1,0.3l-7.7,8.7c-0.1,0.1-0.1,0.2,0,0.2l8.4,12.4
		c0.1,0.1,0.1,0.2,0.1,0.3c0,0.2-0.1,0.3-0.4,0.3h-1.7c-0.2,0-0.4-0.1-0.5-0.3l-7.5-11c-0.1-0.1-0.2-0.1-0.2,0l-3,3.2
		c0,0.1-0.1,0.2-0.1,0.2v7.5c0,0.3-0.1,0.4-0.4,0.4h-1.4C79.3,186.3,79.1,186.1,79.1,185.8z"/>
	<path class="st0" d="M107.3,183.9c0.7-0.4,1.2-1,1.6-1.7c0-0.1,0.1-0.2,0.2-0.2c0.1,0,0.2,0,0.3,0l0.9,0.5c0.3,0.1,0.3,0.3,0.2,0.5
		c-0.5,1.1-1.3,1.9-2.3,2.5c-1,0.6-2.2,0.9-3.6,0.9c-1.5,0-2.8-0.4-3.8-1.1s-1.8-1.7-2.2-2.9c-0.4-1.1-0.6-2.5-0.6-4.4
		c0-0.9,0-1.6,0-2.2c0-0.5,0.1-1.1,0.2-1.5c0.4-1.4,1.1-2.5,2.2-3.3c1.1-0.8,2.4-1.2,4-1.2c1.9,0,3.3,0.5,4.4,1.4
		c1.1,1,1.7,2.3,2,4.1c0.1,0.7,0.2,1.7,0.2,3.2c0,0.3-0.1,0.4-0.4,0.4h-10.2c-0.1,0-0.2,0.1-0.2,0.2c0,1.1,0.1,1.8,0.2,2.3
		c0.2,1,0.7,1.7,1.5,2.3c0.8,0.6,1.7,0.8,2.9,0.8C105.8,184.5,106.6,184.3,107.3,183.9z M101.9,172.6c-0.7,0.5-1.1,1.3-1.3,2.2
		c-0.1,0.4-0.2,1.2-0.3,2.2c0,0.1,0.1,0.2,0.2,0.2h8.2c0.1,0,0.2-0.1,0.2-0.2c0-0.9-0.1-1.6-0.2-2c-0.2-1-0.7-1.7-1.4-2.3
		c-0.7-0.6-1.6-0.8-2.7-0.8C103.5,171.8,102.6,172.1,101.9,172.6z"/>
	<path class="st0" d="M115.1,192.2v-1.1c0-0.3,0.1-0.4,0.2-0.4h0.2c0.8,0,1.5-0.1,1.9-0.4c0.5-0.2,0.9-0.7,1.2-1.2
		c0.3-0.6,0.7-1.5,1.1-2.8c0,0,0-0.1,0-0.2l-5.4-15.6c0,0,0-0.1,0-0.2c0-0.1,0-0.2,0.1-0.2c0.1-0.1,0.2-0.1,0.3-0.1h1.5
		c0.3,0,0.4,0.1,0.5,0.4l4.1,12.5c0,0.1,0.1,0.1,0.1,0.1c0,0,0.1,0,0.1-0.1l4-12.5c0.1-0.2,0.2-0.4,0.4-0.4h1.5c0.1,0,0.3,0,0.3,0.1
		s0.1,0.2,0,0.4l-5.9,17.1c-0.5,1.4-1,2.5-1.4,3.2c-0.4,0.7-1,1.2-1.7,1.4s-1.6,0.4-2.8,0.4h-0.2
		C115.1,192.7,115.1,192.5,115.1,192.2z"/>
	<path class="st0" d="M131.7,166.7c-0.3-0.3-0.5-0.7-0.5-1.2c0-0.5,0.2-0.9,0.5-1.2c0.3-0.3,0.7-0.4,1.2-0.4s0.9,0.1,1.2,0.4
		c0.3,0.3,0.5,0.7,0.5,1.2c0,0.5-0.2,0.9-0.5,1.2c-0.3,0.3-0.7,0.5-1.2,0.5S132,167,131.7,166.7z M131.8,185.8v-15.4
		c0-0.3,0.1-0.4,0.4-0.4h1.4c0.3,0,0.4,0.1,0.4,0.4v15.4c0,0.3-0.1,0.4-0.4,0.4h-1.4C132,186.3,131.8,186.1,131.8,185.8z"/>
	<path class="st0" d="M144.2,166.6c-0.4,0.5-0.6,1.4-0.6,2.7v0.6c0,0.1,0.1,0.2,0.2,0.2h3.5c0.3,0,0.4,0.1,0.4,0.4v1.2
		c0,0.3-0.1,0.4-0.4,0.4h-3.5c-0.1,0-0.2,0.1-0.2,0.2v13.5c0,0.3-0.1,0.4-0.4,0.4h-1.4c-0.3,0-0.4-0.1-0.4-0.4v-13.5
		c0-0.1-0.1-0.2-0.2-0.2h-2c-0.3,0-0.4-0.1-0.4-0.4v-1.2c0-0.3,0.1-0.4,0.4-0.4h2c0.1,0,0.2-0.1,0.2-0.2v-0.7c0-1.3,0.1-2.4,0.4-3.1
		c0.3-0.8,0.8-1.3,1.6-1.7c0.7-0.4,1.8-0.5,3.1-0.5h0.8c0.3,0,0.4,0.1,0.4,0.4v1.2c0,0.3-0.1,0.4-0.4,0.4h-0.6
		C145.4,165.8,144.6,166.1,144.2,166.6z"/>
	<path class="st0" d="M169.7,171.3c1.1,1,1.6,2.3,1.6,3.9v10.7c0,0.3-0.1,0.4-0.4,0.4h-1.4c-0.3,0-0.4-0.1-0.4-0.4v-1.2
		c0-0.1,0-0.1-0.1-0.1c0,0-0.1,0-0.1,0.1c-0.6,0.6-1.3,1.1-2.2,1.4c-0.9,0.3-1.8,0.5-2.8,0.5c-1.5,0-2.7-0.4-3.8-1.2
		c-1-0.8-1.5-1.9-1.5-3.5c0-1.6,0.6-2.9,1.7-3.8c1.2-0.9,2.8-1.4,4.8-1.4h3.7c0.1,0,0.2-0.1,0.2-0.2v-1.2c0-1.1-0.3-1.9-0.9-2.6
		s-1.6-0.9-2.8-0.9c-1,0-1.8,0.2-2.5,0.6s-1,0.9-1.2,1.6c-0.1,0.3-0.2,0.4-0.5,0.3l-1.6-0.2c-0.3,0-0.4-0.2-0.4-0.4
		c0.2-1.2,0.9-2.1,2-2.8s2.5-1.1,4.1-1.1C167.1,169.8,168.6,170.3,169.7,171.3z M167.6,183.6c0.9-0.6,1.4-1.5,1.4-2.5v-2.5
		c0-0.1-0.1-0.2-0.2-0.2h-3.4c-1.4,0-2.5,0.3-3.4,0.9c-0.9,0.6-1.3,1.4-1.3,2.4c0,0.9,0.3,1.6,1,2.1c0.7,0.5,1.5,0.7,2.5,0.7
		C165.6,184.6,166.7,184.2,167.6,183.6z"/>
	<path class="st0" d="M176.8,185.8v-21.6c0-0.3,0.1-0.4,0.4-0.4h1.4c0.3,0,0.4,0.1,0.4,0.4v21.6c0,0.3-0.1,0.4-0.4,0.4h-1.4
		C176.9,186.3,176.8,186.1,176.8,185.8z"/>
	<path class="st0" d="M184.8,185.8v-15.4c0-0.3,0.1-0.4,0.4-0.4h1.4c0.3,0,0.4,0.1,0.4,0.4v15.4c0,0.3-0.1,0.4-0.4,0.4h-1.4
		C184.9,186.3,184.8,186.1,184.8,185.8z"/>
	<path class="st0" d="M203.6,171.3c1,1,1.5,2.3,1.5,4v10.5c0,0.3-0.1,0.4-0.4,0.4h-1.4c-0.3,0-0.4-0.1-0.4-0.4v-10
		c0-1.2-0.4-2.2-1.1-2.9c-0.7-0.7-1.6-1.1-2.8-1.1c-1.1,0-2,0.3-2.7,0.9c-0.7,0.6-1.1,1.4-1.2,2.4v10.7c0,0.3-0.1,0.4-0.4,0.4h-1.4
		c-0.3,0-0.4-0.1-0.4-0.4v-15.4c0-0.3,0.1-0.4,0.4-0.4h1.4c0.3,0,0.4,0.1,0.4,0.4v1.2c0,0.1,0,0.1,0.1,0.1c0,0,0.1,0,0.1,0
		c0.9-1.3,2.4-1.9,4.3-1.9C201.3,169.8,202.6,170.3,203.6,171.3z"/>
	<path class="st0" d="M221,171.3c1.1,1,1.6,2.3,1.6,3.9v10.7c0,0.3-0.1,0.4-0.4,0.4h-1.4c-0.3,0-0.4-0.1-0.4-0.4v-1.2
		c0-0.1,0-0.1-0.1-0.1c0,0-0.1,0-0.1,0.1c-0.6,0.6-1.3,1.1-2.2,1.4c-0.9,0.3-1.8,0.5-2.8,0.5c-1.5,0-2.7-0.4-3.8-1.2
		c-1-0.8-1.5-1.9-1.5-3.5c0-1.6,0.6-2.9,1.7-3.8c1.2-0.9,2.8-1.4,4.8-1.4h3.7c0.1,0,0.2-0.1,0.2-0.2v-1.2c0-1.1-0.3-1.9-0.9-2.6
		s-1.6-0.9-2.8-0.9c-1,0-1.8,0.2-2.5,0.6s-1,0.9-1.2,1.6c-0.1,0.3-0.2,0.4-0.5,0.3l-1.6-0.2c-0.3,0-0.4-0.2-0.4-0.4
		c0.2-1.2,0.9-2.1,2-2.8s2.5-1.1,4.1-1.1C218.4,169.8,219.9,170.3,221,171.3z M218.9,183.6c0.9-0.6,1.4-1.5,1.4-2.5v-2.5
		c0-0.1-0.1-0.2-0.2-0.2h-3.4c-1.4,0-2.5,0.3-3.4,0.9c-0.9,0.6-1.3,1.4-1.3,2.4c0,0.9,0.3,1.6,1,2.1c0.7,0.5,1.5,0.7,2.5,0.7
		C216.9,184.6,218,184.2,218.9,183.6z"/>
	<path class="st0" d="M238.8,171.3c1,1,1.5,2.3,1.5,4v10.5c0,0.3-0.1,0.4-0.4,0.4h-1.4c-0.3,0-0.4-0.1-0.4-0.4v-10
		c0-1.2-0.4-2.2-1.1-2.9c-0.7-0.7-1.6-1.1-2.8-1.1c-1.1,0-2,0.3-2.7,0.9c-0.7,0.6-1.1,1.4-1.2,2.4v10.7c0,0.3-0.1,0.4-0.4,0.4h-1.4
		c-0.3,0-0.4-0.1-0.4-0.4v-15.4c0-0.3,0.1-0.4,0.4-0.4h1.4c0.3,0,0.4,0.1,0.4,0.4v1.2c0,0.1,0,0.1,0.1,0.1c0,0,0.1,0,0.1,0
		c0.9-1.3,2.4-1.9,4.3-1.9C236.5,169.8,237.8,170.3,238.8,171.3z"/>
	<path class="st0" d="M253.3,185.8v-21.6c0-0.3,0.1-0.4,0.4-0.4h1.4c0.3,0,0.4,0.1,0.4,0.4v12.9c0,0.1,0,0.1,0.1,0.1
		c0,0,0.1,0,0.1,0l6.7-7c0.1-0.1,0.3-0.2,0.5-0.2h1.7c0.2,0,0.4,0.1,0.4,0.3c0,0.1,0,0.1-0.1,0.3l-4,4.4c-0.1,0.1-0.1,0.1,0,0.2
		l4.8,10.6c0,0.1,0.1,0.1,0.1,0.2c0,0.2-0.1,0.3-0.4,0.3h-1.5c-0.2,0-0.4-0.1-0.5-0.3l-4.1-9.2c0,0-0.1-0.1-0.1-0.1c0,0-0.1,0-0.1,0
		l-3.5,3.6c0,0.1-0.1,0.2-0.1,0.2v5.3c0,0.3-0.1,0.4-0.4,0.4h-1.4C253.4,186.3,253.3,186.1,253.3,185.8z"/>
	<path class="st0" d="M270.3,166.7c-0.3-0.3-0.5-0.7-0.5-1.2c0-0.5,0.2-0.9,0.5-1.2c0.3-0.3,0.7-0.4,1.2-0.4s0.9,0.1,1.2,0.4
		c0.3,0.3,0.5,0.7,0.5,1.2c0,0.5-0.2,0.9-0.5,1.2c-0.3,0.3-0.7,0.5-1.2,0.5S270.6,167,270.3,166.7z M270.4,185.8v-15.4
		c0-0.3,0.1-0.4,0.4-0.4h1.4c0.3,0,0.4,0.1,0.4,0.4v15.4c0,0.3-0.1,0.4-0.4,0.4h-1.4C270.5,186.3,270.4,186.1,270.4,185.8z"/>
	<path class="st0" d="M285.6,172h-3.5c-0.1,0-0.2,0.1-0.2,0.2v9.3c0,1,0.2,1.7,0.7,2.2c0.5,0.4,1.2,0.6,2.2,0.6h0.7
		c0.3,0,0.4,0.1,0.4,0.4v1.1c0,0.3-0.1,0.4-0.4,0.4h-1.1c-1.5,0-2.7-0.3-3.5-0.9c-0.8-0.6-1.2-1.6-1.2-3.2v-10
		c0-0.1-0.1-0.2-0.2-0.2h-1.8c-0.3,0-0.4-0.1-0.4-0.4v-1.1c0-0.3,0.1-0.4,0.4-0.4h1.8c0.1,0,0.2-0.1,0.2-0.2v-3.6
		c0-0.3,0.1-0.4,0.4-0.4h1.4c0.3,0,0.4,0.1,0.4,0.4v3.6c0,0.1,0.1,0.2,0.2,0.2h3.5c0.3,0,0.4,0.1,0.4,0.4v1.1
		C286,171.8,285.9,172,285.6,172z"/>
	<path class="st0" d="M301.3,171.3c1.1,1,1.6,2.3,1.6,3.9v10.7c0,0.3-0.1,0.4-0.4,0.4H301c-0.3,0-0.4-0.1-0.4-0.4v-1.2
		c0-0.1,0-0.1-0.1-0.1c0,0-0.1,0-0.1,0.1c-0.6,0.6-1.3,1.1-2.2,1.4c-0.9,0.3-1.8,0.5-2.8,0.5c-1.5,0-2.7-0.4-3.8-1.2
		c-1-0.8-1.5-1.9-1.5-3.5c0-1.6,0.6-2.9,1.7-3.8c1.2-0.9,2.8-1.4,4.8-1.4h3.7c0.1,0,0.2-0.1,0.2-0.2v-1.2c0-1.1-0.3-1.9-0.9-2.6
		s-1.6-0.9-2.8-0.9c-1,0-1.8,0.2-2.5,0.6s-1,0.9-1.2,1.6c-0.1,0.3-0.2,0.4-0.5,0.3l-1.6-0.2c-0.3,0-0.4-0.2-0.4-0.4
		c0.2-1.2,0.9-2.1,2-2.8s2.5-1.1,4.1-1.1C298.7,169.8,300.2,170.3,301.3,171.3z M299.2,183.6c0.9-0.6,1.4-1.5,1.4-2.5v-2.5
		c0-0.1-0.1-0.2-0.2-0.2h-3.4c-1.4,0-2.5,0.3-3.4,0.9c-0.9,0.6-1.3,1.4-1.3,2.4c0,0.9,0.3,1.6,1,2.1c0.7,0.5,1.5,0.7,2.5,0.7
		C297.2,184.6,298.3,184.2,299.2,183.6z"/>
	<path class="st0" d="M321.4,178.2c0,1.8-0.1,3.1-0.4,4c-0.4,1.4-1.1,2.4-2.1,3.2c-1,0.8-2.3,1.2-3.8,1.2c-0.8,0-1.6-0.2-2.3-0.5
		c-0.7-0.3-1.3-0.8-1.8-1.4c0-0.1-0.1-0.1-0.1-0.1c0,0-0.1,0.1-0.1,0.1v7.4c0,0.3-0.1,0.4-0.4,0.4H309c-0.3,0-0.4-0.1-0.4-0.4v-21.6
		c0-0.3,0.1-0.4,0.4-0.4h1.4c0.3,0,0.4,0.1,0.4,0.4v1.2c0,0.1,0,0.1,0.1,0.1c0,0,0.1,0,0.1,0c0.5-0.6,1.1-1.1,1.7-1.4
		c0.7-0.3,1.5-0.5,2.3-0.5c1.5,0,2.7,0.4,3.8,1.2c1,0.8,1.7,1.8,2.1,3.1C321.2,175.1,321.4,176.4,321.4,178.2z M318.9,180.6
		c0.1-0.6,0.2-1.4,0.2-2.4c0-1,0-1.8-0.1-2.4c-0.1-0.6-0.2-1.1-0.4-1.5c-0.3-0.8-0.7-1.4-1.4-1.8c-0.7-0.4-1.4-0.7-2.3-0.7
		c-0.9,0-1.6,0.2-2.1,0.7c-0.6,0.4-1,1-1.3,1.8c-0.2,0.4-0.3,0.9-0.4,1.5c-0.1,0.6-0.1,1.4-0.1,2.4s0,1.8,0.1,2.4
		c0.1,0.6,0.2,1.1,0.4,1.6c0.3,0.7,0.7,1.3,1.3,1.7c0.6,0.4,1.3,0.7,2.1,0.7c0.9,0,1.6-0.2,2.2-0.6c0.6-0.4,1.1-1,1.3-1.7
		C318.6,181.7,318.8,181.2,318.9,180.6z"/>
	<path class="st0" d="M325.3,186.1c-0.1-0.1-0.1-0.2,0-0.4l7-21.6c0.1-0.2,0.2-0.4,0.4-0.4h1.4c0.1,0,0.3,0,0.3,0.1s0.1,0.2,0,0.4
		l-7,21.6c-0.1,0.2-0.2,0.4-0.4,0.4h-1.4C325.4,186.3,325.3,186.2,325.3,186.1z"/>
	<path class="st0" d="M342.9,166.6c-0.4,0.5-0.6,1.4-0.6,2.7v0.6c0,0.1,0.1,0.2,0.2,0.2h3.5c0.3,0,0.4,0.1,0.4,0.4v1.2
		c0,0.3-0.1,0.4-0.4,0.4h-3.5c-0.1,0-0.2,0.1-0.2,0.2v13.5c0,0.3-0.1,0.4-0.4,0.4h-1.4c-0.3,0-0.4-0.1-0.4-0.4v-13.5
		c0-0.1-0.1-0.2-0.2-0.2h-2c-0.3,0-0.4-0.1-0.4-0.4v-1.2c0-0.3,0.1-0.4,0.4-0.4h2c0.1,0,0.2-0.1,0.2-0.2v-0.7c0-1.3,0.1-2.4,0.4-3.1
		c0.3-0.8,0.8-1.3,1.6-1.7c0.7-0.4,1.8-0.5,3.1-0.5h0.8c0.3,0,0.4,0.1,0.4,0.4v1.2c0,0.3-0.1,0.4-0.4,0.4h-0.6
		C344.2,165.8,343.4,166.1,342.9,166.6z M350.4,166.7c-0.3-0.3-0.5-0.7-0.5-1.2c0-0.5,0.2-0.9,0.5-1.2c0.3-0.3,0.7-0.4,1.2-0.4
		c0.5,0,0.9,0.1,1.2,0.4c0.3,0.3,0.5,0.7,0.5,1.2c0,0.5-0.2,0.9-0.5,1.2c-0.3,0.3-0.7,0.5-1.2,0.5
		C351.2,167.2,350.8,167,350.4,166.7z M350.6,185.8v-15.4c0-0.3,0.1-0.4,0.4-0.4h1.4c0.3,0,0.4,0.1,0.4,0.4v15.4
		c0,0.3-0.1,0.4-0.4,0.4H351C350.7,186.3,350.6,186.1,350.6,185.8z"/>
	<path class="st0" d="M359,185.8v-21.6c0-0.3,0.1-0.4,0.4-0.4h1.4c0.3,0,0.4,0.1,0.4,0.4v21.6c0,0.3-0.1,0.4-0.4,0.4h-1.4
		C359.1,186.3,359,186.1,359,185.8z"/>
	<path class="st0" d="M387.4,171.3c0.9,1,1.4,2.3,1.4,3.9v10.6c0,0.3-0.1,0.4-0.4,0.4h-1.4c-0.3,0-0.4-0.1-0.4-0.4v-10.2
		c0-1.2-0.3-2.1-1-2.8s-1.6-1-2.6-1c-1.1,0-2,0.3-2.7,1c-0.7,0.7-1,1.6-1,2.8v10.2c0,0.3-0.1,0.4-0.4,0.4h-1.4
		c-0.3,0-0.4-0.1-0.4-0.4v-10.2c0-1.2-0.3-2.1-1-2.8c-0.7-0.7-1.5-1-2.7-1c-1.1,0-2,0.3-2.7,1c-0.7,0.7-1,1.6-1,2.8v10.2
		c0,0.3-0.1,0.4-0.4,0.4h-1.4c-0.3,0-0.4-0.1-0.4-0.4v-15.4c0-0.3,0.1-0.4,0.4-0.4h1.4c0.3,0,0.4,0.1,0.4,0.4v1.1
		c0,0.1,0,0.1,0.1,0.1c0,0,0.1,0,0.1-0.1c0.5-0.6,1.1-1.1,1.8-1.4c0.7-0.3,1.5-0.4,2.4-0.4c1.1,0,2,0.2,2.8,0.7
		c0.8,0.4,1.4,1.1,1.8,1.9c0.1,0.1,0.1,0.1,0.2,0c0.5-0.9,1.1-1.5,2-2c0.9-0.4,1.8-0.6,2.9-0.6C385.2,169.8,386.4,170.3,387.4,171.3
		z"/>
	<path class="st0" d="M400.2,186.1c-0.1-0.1-0.1-0.2,0-0.4l7-21.6c0.1-0.2,0.2-0.4,0.4-0.4h1.4c0.1,0,0.3,0,0.3,0.1s0.1,0.2,0,0.4
		l-7,21.6c-0.1,0.2-0.2,0.4-0.4,0.4h-1.4C400.4,186.3,400.3,186.2,400.2,186.1z"/>
	<path class="st0" d="M414,185.3c-1.1-0.8-1.9-1.9-2.3-3.3c-0.3-1-0.4-2.3-0.4-3.9c0-1.6,0.1-2.9,0.4-3.9c0.4-1.4,1.2-2.4,2.3-3.2
		c1.1-0.8,2.4-1.2,4-1.2c1.5,0,2.9,0.4,4,1.2c1.1,0.8,1.9,1.9,2.3,3.2c0.3,1,0.4,2.3,0.4,3.9c0,1.6-0.1,3-0.4,3.9
		c-0.4,1.4-1.2,2.5-2.3,3.3c-1.1,0.8-2.4,1.2-3.9,1.2C416.4,186.5,415.1,186.1,414,185.3z M420.6,183.7c0.7-0.6,1.2-1.3,1.5-2.3
		c0.2-0.7,0.3-1.8,0.3-3.2c0-1.5-0.1-2.6-0.3-3.2c-0.2-1-0.7-1.7-1.5-2.3c-0.7-0.6-1.6-0.8-2.7-0.8c-1,0-1.9,0.3-2.6,0.8
		c-0.7,0.6-1.2,1.3-1.5,2.3c-0.2,0.6-0.3,1.7-0.3,3.2s0.1,2.6,0.3,3.2c0.2,1,0.7,1.7,1.5,2.3c0.7,0.6,1.6,0.8,2.7,0.8
		C419,184.5,419.9,184.2,420.6,183.7z"/>
	<path class="st0" d="M428.4,192.2v-1.1c0-0.3,0.1-0.4,0.2-0.4h0.2c0.8,0,1.5-0.1,1.9-0.4c0.5-0.2,0.9-0.7,1.2-1.2
		c0.3-0.6,0.7-1.5,1.1-2.8c0,0,0-0.1,0-0.2l-5.4-15.6c0,0,0-0.1,0-0.2c0-0.1,0-0.2,0.1-0.2c0.1-0.1,0.2-0.1,0.3-0.1h1.5
		c0.3,0,0.4,0.1,0.5,0.4l4.1,12.5c0,0.1,0.1,0.1,0.1,0.1c0,0,0.1,0,0.1-0.1l4-12.5c0.1-0.2,0.2-0.4,0.4-0.4h1.5c0.1,0,0.3,0,0.3,0.1
		s0.1,0.2,0,0.4l-5.9,17.1c-0.5,1.4-1,2.5-1.4,3.2c-0.4,0.7-1,1.2-1.7,1.4s-1.6,0.4-2.8,0.4h-0.2
		C428.5,192.7,428.4,192.5,428.4,192.2z"/>
	<path class="st0" d="M455.1,170.1h1.4c0.3,0,0.4,0.1,0.4,0.4v15.4c0,0.3-0.1,0.4-0.4,0.4h-1.4c-0.3,0-0.4-0.1-0.4-0.4v-1.2
		c0-0.1,0-0.1-0.1-0.1c0,0-0.1,0-0.1,0.1c-0.9,1.3-2.3,1.9-4.2,1.9c-1,0-2-0.2-2.8-0.6s-1.5-1-2-1.8c-0.5-0.8-0.8-1.7-0.8-2.8v-10.7
		c0-0.3,0.1-0.4,0.4-0.4h1.4c0.3,0,0.4,0.1,0.4,0.4v10c0,1.2,0.3,2.2,1,2.9c0.7,0.7,1.6,1.1,2.8,1.1c1.2,0,2.2-0.4,2.9-1.1
		s1.1-1.7,1.1-2.9v-10C454.7,170.2,454.9,170.1,455.1,170.1z"/>
	<path class="st0" d="M473.7,171.3c1,1,1.5,2.3,1.5,4v10.5c0,0.3-0.1,0.4-0.4,0.4h-1.4c-0.3,0-0.4-0.1-0.4-0.4v-10
		c0-1.2-0.4-2.2-1.1-2.9c-0.7-0.7-1.6-1.1-2.8-1.1c-1.1,0-2,0.3-2.7,0.9c-0.7,0.6-1.1,1.4-1.2,2.4v10.7c0,0.3-0.1,0.4-0.4,0.4h-1.4
		c-0.3,0-0.4-0.1-0.4-0.4v-15.4c0-0.3,0.1-0.4,0.4-0.4h1.4c0.3,0,0.4,0.1,0.4,0.4v1.2c0,0.1,0,0.1,0.1,0.1c0,0,0.1,0,0.1,0
		c0.9-1.3,2.4-1.9,4.3-1.9C471.3,169.8,472.6,170.3,473.7,171.3z"/>
</g>
<g>
	<path class="st0" d="M541.1,185.8v-21.6c0-0.3,0.1-0.4,0.4-0.4h1.4c0.3,0,0.4,0.1,0.4,0.4V175c0,0.1,0,0.1,0.1,0.1
		c0,0,0.1,0,0.1-0.1l10-10.9c0.1-0.1,0.3-0.2,0.5-0.2h1.6c0.2,0,0.4,0.1,0.4,0.3c0,0.1,0,0.2-0.1,0.3l-7.7,8.7
		c-0.1,0.1-0.1,0.2,0,0.2l8.4,12.4c0.1,0.1,0.1,0.2,0.1,0.3c0,0.2-0.1,0.3-0.4,0.3h-1.7c-0.2,0-0.4-0.1-0.5-0.3l-7.5-11
		c-0.1-0.1-0.2-0.1-0.2,0l-3,3.2c0,0.1-0.1,0.2-0.1,0.2v7.5c0,0.3-0.1,0.4-0.4,0.4h-1.4C541.3,186.3,541.1,186.1,541.1,185.8z"/>
	<path class="st0" d="M561.2,166.7c-0.3-0.3-0.5-0.7-0.5-1.2c0-0.5,0.2-0.9,0.5-1.2c0.3-0.3,0.7-0.4,1.2-0.4s0.9,0.1,1.2,0.4
		c0.3,0.3,0.5,0.7,0.5,1.2c0,0.5-0.2,0.9-0.5,1.2c-0.3,0.3-0.7,0.5-1.2,0.5S561.5,167,561.2,166.7z M561.3,185.8v-15.4
		c0-0.3,0.1-0.4,0.4-0.4h1.4c0.3,0,0.4,0.1,0.4,0.4v15.4c0,0.3-0.1,0.4-0.4,0.4h-1.4C561.4,186.3,561.3,186.1,561.3,185.8z"/>
	<path class="st0" d="M576.5,172H573c-0.1,0-0.2,0.1-0.2,0.2v9.3c0,1,0.2,1.7,0.7,2.2c0.5,0.4,1.2,0.6,2.2,0.6h0.7
		c0.3,0,0.4,0.1,0.4,0.4v1.1c0,0.3-0.1,0.4-0.4,0.4h-1.1c-1.5,0-2.7-0.3-3.5-0.9c-0.8-0.6-1.2-1.6-1.2-3.2v-10
		c0-0.1-0.1-0.2-0.2-0.2h-1.8c-0.3,0-0.4-0.1-0.4-0.4v-1.1c0-0.3,0.1-0.4,0.4-0.4h1.8c0.1,0,0.2-0.1,0.2-0.2v-3.6
		c0-0.3,0.1-0.4,0.4-0.4h1.4c0.3,0,0.4,0.1,0.4,0.4v3.6c0,0.1,0.1,0.2,0.2,0.2h3.5c0.3,0,0.4,0.1,0.4,0.4v1.1
		C576.9,171.8,576.8,172,576.5,172z"/>
	<path class="st0" d="M592.2,171.3c1.1,1,1.6,2.3,1.6,3.9v10.7c0,0.3-0.1,0.4-0.4,0.4h-1.4c-0.3,0-0.4-0.1-0.4-0.4v-1.2
		c0-0.1,0-0.1-0.1-0.1c0,0-0.1,0-0.1,0.1c-0.6,0.6-1.3,1.1-2.2,1.4c-0.9,0.3-1.8,0.5-2.8,0.5c-1.5,0-2.7-0.4-3.8-1.2
		c-1-0.8-1.5-1.9-1.5-3.5c0-1.6,0.6-2.9,1.7-3.8c1.2-0.9,2.8-1.4,4.8-1.4h3.7c0.1,0,0.2-0.1,0.2-0.2v-1.2c0-1.1-0.3-1.9-0.9-2.6
		s-1.6-0.9-2.8-0.9c-1,0-1.8,0.2-2.5,0.6s-1,0.9-1.2,1.6c-0.1,0.3-0.2,0.4-0.5,0.3l-1.6-0.2c-0.3,0-0.4-0.2-0.4-0.4
		c0.2-1.2,0.9-2.1,2-2.8c1.1-0.7,2.5-1.1,4.1-1.1C589.6,169.8,591.1,170.3,592.2,171.3z M590.1,183.6c0.9-0.6,1.4-1.5,1.4-2.5v-2.5
		c0-0.1-0.1-0.2-0.2-0.2H588c-1.4,0-2.5,0.3-3.4,0.9c-0.9,0.6-1.3,1.4-1.3,2.4c0,0.9,0.3,1.6,1,2.1c0.7,0.5,1.5,0.7,2.5,0.7
		C588.1,184.6,589.2,184.2,590.1,183.6z"/>
	<path class="st0" d="M612.3,178.2c0,1.8-0.1,3.1-0.4,4c-0.4,1.4-1.1,2.4-2.1,3.2c-1,0.8-2.3,1.2-3.8,1.2c-0.8,0-1.6-0.2-2.3-0.5
		c-0.7-0.3-1.3-0.8-1.8-1.4c0-0.1-0.1-0.1-0.1-0.1s-0.1,0.1-0.1,0.1v7.4c0,0.3-0.1,0.4-0.4,0.4h-1.4c-0.3,0-0.4-0.1-0.4-0.4v-21.6
		c0-0.3,0.1-0.4,0.4-0.4h1.4c0.3,0,0.4,0.1,0.4,0.4v1.2c0,0.1,0,0.1,0.1,0.1c0,0,0.1,0,0.1,0c0.5-0.6,1.1-1.1,1.7-1.4
		c0.7-0.3,1.5-0.5,2.3-0.5c1.5,0,2.7,0.4,3.8,1.2c1,0.8,1.7,1.8,2.1,3.1C612.1,175.1,612.3,176.4,612.3,178.2z M609.8,180.6
		c0.1-0.6,0.2-1.4,0.2-2.4c0-1,0-1.8-0.1-2.4c-0.1-0.6-0.2-1.1-0.4-1.5c-0.3-0.8-0.7-1.4-1.4-1.8c-0.7-0.4-1.4-0.7-2.3-0.7
		c-0.9,0-1.6,0.2-2.1,0.7s-1,1-1.3,1.8c-0.2,0.4-0.3,0.9-0.4,1.5c-0.1,0.6-0.1,1.4-0.1,2.4s0,1.8,0.1,2.4s0.2,1.1,0.4,1.6
		c0.3,0.7,0.7,1.3,1.3,1.7c0.6,0.4,1.3,0.7,2.1,0.7c0.9,0,1.6-0.2,2.2-0.6c0.6-0.4,1.1-1,1.3-1.7
		C609.5,181.7,609.7,181.2,609.8,180.6z"/>
	<path class="st0" d="M627,185.3c-1.1-0.8-1.9-1.9-2.3-3.3c-0.3-1-0.4-2.3-0.4-3.9c0-1.6,0.1-2.9,0.4-3.9c0.4-1.4,1.2-2.4,2.3-3.2
		c1.1-0.8,2.4-1.2,4-1.2c1.5,0,2.9,0.4,4,1.2c1.1,0.8,1.8,1.9,2.3,3.2c0.3,1,0.4,2.3,0.4,3.9c0,1.6-0.1,3-0.4,3.9
		c-0.4,1.4-1.2,2.5-2.3,3.3c-1.1,0.8-2.4,1.2-3.9,1.2C629.5,186.5,628.1,186.1,627,185.3z M633.6,183.7c0.7-0.6,1.2-1.3,1.5-2.3
		c0.2-0.7,0.3-1.8,0.3-3.2c0-1.5-0.1-2.6-0.3-3.2c-0.2-1-0.7-1.7-1.5-2.3c-0.7-0.6-1.6-0.8-2.7-0.8c-1,0-1.9,0.3-2.6,0.8
		c-0.7,0.6-1.2,1.3-1.5,2.3c-0.2,0.6-0.3,1.7-0.3,3.2s0.1,2.6,0.3,3.2c0.2,1,0.7,1.7,1.5,2.3c0.7,0.6,1.6,0.8,2.7,0.8
		C632,184.5,632.9,184.2,633.6,183.7z M627.2,166.4c-0.3-0.3-0.4-0.6-0.4-1.1s0.1-0.8,0.4-1.1c0.3-0.3,0.7-0.4,1.1-0.4
		c0.4,0,0.8,0.1,1.1,0.4s0.4,0.6,0.4,1.1s-0.1,0.8-0.4,1.1c-0.3,0.3-0.6,0.4-1.1,0.4C627.8,166.8,627.5,166.7,627.2,166.4z
		 M632.6,166.4c-0.3-0.3-0.4-0.6-0.4-1.1s0.1-0.8,0.4-1.1s0.6-0.4,1.1-0.4c0.4,0,0.8,0.1,1.1,0.4s0.4,0.6,0.4,1.1s-0.1,0.8-0.4,1.1
		c-0.3,0.3-0.6,0.4-1.1,0.4C633.2,166.8,632.9,166.7,632.6,166.4z"/>
	<path class="st0" d="M653.8,171.3c1,1,1.5,2.3,1.5,4v10.5c0,0.3-0.1,0.4-0.4,0.4h-1.4c-0.3,0-0.4-0.1-0.4-0.4v-10
		c0-1.2-0.4-2.2-1.1-2.9c-0.7-0.7-1.6-1.1-2.8-1.1c-1.1,0-2,0.3-2.7,0.9c-0.7,0.6-1.1,1.4-1.2,2.4v10.7c0,0.3-0.1,0.4-0.4,0.4h-1.4
		c-0.3,0-0.4-0.1-0.4-0.4v-15.4c0-0.3,0.1-0.4,0.4-0.4h1.4c0.3,0,0.4,0.1,0.4,0.4v1.2c0,0.1,0,0.1,0.1,0.1c0,0,0.1,0,0.1,0
		c0.9-1.3,2.4-1.9,4.3-1.9C651.5,169.8,652.8,170.3,653.8,171.3z"/>
	<path class="st0" d="M669.9,183.9c0.7-0.4,1.2-1,1.6-1.7c0-0.1,0.1-0.2,0.2-0.2c0.1,0,0.2,0,0.3,0l0.9,0.5c0.3,0.1,0.3,0.3,0.2,0.5
		c-0.5,1.1-1.3,1.9-2.3,2.5c-1,0.6-2.2,0.9-3.6,0.9c-1.5,0-2.8-0.4-3.8-1.1c-1-0.7-1.8-1.7-2.2-2.9c-0.4-1.1-0.6-2.5-0.6-4.4
		c0-0.9,0-1.6,0-2.2c0-0.5,0.1-1.1,0.2-1.5c0.4-1.4,1.1-2.5,2.2-3.3c1.1-0.8,2.4-1.2,4-1.2c1.9,0,3.3,0.5,4.4,1.4s1.7,2.3,2,4.1
		c0.1,0.7,0.2,1.7,0.2,3.2c0,0.3-0.1,0.4-0.4,0.4H663c-0.1,0-0.2,0.1-0.2,0.2c0,1.1,0.1,1.8,0.2,2.3c0.2,1,0.7,1.7,1.5,2.3
		c0.8,0.6,1.7,0.8,2.9,0.8C668.4,184.5,669.2,184.3,669.9,183.9z M664.5,172.6c-0.7,0.5-1.1,1.3-1.3,2.2c-0.1,0.4-0.2,1.2-0.3,2.2
		c0,0.1,0.1,0.2,0.2,0.2h8.2c0.1,0,0.2-0.1,0.2-0.2c0-0.9-0.1-1.6-0.2-2c-0.2-1-0.7-1.7-1.4-2.3c-0.7-0.6-1.6-0.8-2.7-0.8
		C666,171.8,665.2,172.1,664.5,172.6z"/>
	<path class="st0" d="M687.3,170.3c0.2,0.1,0.3,0.3,0.2,0.5l-0.3,1.4c-0.1,0.3-0.2,0.3-0.5,0.3c-0.4-0.1-0.9-0.2-1.6-0.2
		c-1.1,0-2,0.5-2.8,1.2c-0.7,0.8-1.1,1.8-1.1,3v9.3c0,0.3-0.1,0.4-0.4,0.4h-1.4c-0.3,0-0.4-0.1-0.4-0.4v-15.4c0-0.3,0.1-0.4,0.4-0.4
		h1.4c0.3,0,0.4,0.1,0.4,0.4v1.8c0,0.1,0,0.1,0,0.1c0,0,0.1,0,0.1-0.1c0.4-0.8,1-1.4,1.7-1.8c0.7-0.4,1.5-0.6,2.4-0.6
		C686.2,169.9,686.8,170,687.3,170.3z"/>
	<path class="st0" d="M691.6,166.7c-0.3-0.3-0.5-0.7-0.5-1.2c0-0.5,0.2-0.9,0.5-1.2c0.3-0.3,0.7-0.4,1.2-0.4c0.5,0,0.9,0.1,1.2,0.4
		c0.3,0.3,0.5,0.7,0.5,1.2c0,0.5-0.2,0.9-0.5,1.2c-0.3,0.3-0.7,0.5-1.2,0.5C692.3,167.2,691.9,167,691.6,166.7z M691.7,185.8v-15.4
		c0-0.3,0.1-0.4,0.4-0.4h1.4c0.3,0,0.4,0.1,0.4,0.4v15.4c0,0.3-0.1,0.4-0.4,0.4h-1.4C691.8,186.3,691.7,186.1,691.7,185.8z"/>
	<path class="st0" d="M700.1,185.8v-21.6c0-0.3,0.1-0.4,0.4-0.4h1.4c0.3,0,0.4,0.1,0.4,0.4v21.6c0,0.3-0.1,0.4-0.4,0.4h-1.4
		C700.2,186.3,700.1,186.1,700.1,185.8z"/>
	<path class="st0" d="M717.1,183.9c0.7-0.4,1.2-1,1.6-1.7c0-0.1,0.1-0.2,0.2-0.2c0.1,0,0.2,0,0.3,0l0.9,0.5c0.3,0.1,0.3,0.3,0.2,0.5
		c-0.5,1.1-1.3,1.9-2.3,2.5s-2.2,0.9-3.6,0.9c-1.5,0-2.8-0.4-3.8-1.1s-1.8-1.7-2.2-2.9c-0.4-1.1-0.6-2.5-0.6-4.4c0-0.9,0-1.6,0-2.2
		c0-0.5,0.1-1.1,0.2-1.5c0.4-1.4,1.1-2.5,2.2-3.3s2.4-1.2,4-1.2c1.9,0,3.3,0.5,4.4,1.4c1.1,1,1.7,2.3,2,4.1c0.1,0.7,0.2,1.7,0.2,3.2
		c0,0.3-0.1,0.4-0.4,0.4h-10.2c-0.1,0-0.2,0.1-0.2,0.2c0,1.1,0.1,1.8,0.2,2.3c0.2,1,0.7,1.7,1.5,2.3c0.8,0.6,1.7,0.8,2.9,0.8
		C715.6,184.5,716.4,184.3,717.1,183.9z M711.7,172.6c-0.7,0.5-1.1,1.3-1.3,2.2c-0.1,0.4-0.2,1.2-0.3,2.2c0,0.1,0.1,0.2,0.2,0.2h8.2
		c0.1,0,0.2-0.1,0.2-0.2c0-0.9-0.1-1.6-0.2-2c-0.2-1-0.7-1.7-1.4-2.3c-0.7-0.6-1.6-0.8-2.7-0.8C713.2,171.8,712.4,172.1,711.7,172.6
		z"/>
	<path class="st0" d="M734.5,170.3c0.2,0.1,0.3,0.3,0.2,0.5l-0.3,1.4c-0.1,0.3-0.2,0.3-0.5,0.3c-0.4-0.1-0.9-0.2-1.6-0.2
		c-1.1,0-2,0.5-2.8,1.2c-0.7,0.8-1.1,1.8-1.1,3v9.3c0,0.3-0.1,0.4-0.4,0.4h-1.4c-0.3,0-0.4-0.1-0.4-0.4v-15.4c0-0.3,0.1-0.4,0.4-0.4
		h1.4c0.3,0,0.4,0.1,0.4,0.4v1.8c0,0.1,0,0.1,0,0.1c0,0,0.1,0,0.1-0.1c0.4-0.8,1-1.4,1.7-1.8c0.7-0.4,1.5-0.6,2.4-0.6
		C733.4,169.9,734,170,734.5,170.3z"/>
	<path class="st0" d="M738.8,166.7c-0.3-0.3-0.5-0.7-0.5-1.2c0-0.5,0.2-0.9,0.5-1.2c0.3-0.3,0.7-0.4,1.2-0.4s0.9,0.1,1.2,0.4
		c0.3,0.3,0.5,0.7,0.5,1.2c0,0.5-0.2,0.9-0.5,1.2s-0.7,0.5-1.2,0.5S739.1,167,738.8,166.7z M738.9,185.8v-15.4
		c0-0.3,0.1-0.4,0.4-0.4h1.4c0.3,0,0.4,0.1,0.4,0.4v15.4c0,0.3-0.1,0.4-0.4,0.4h-1.4C739,186.3,738.9,186.1,738.9,185.8z"/>
</g>
<g>
	<path class="st0" d="M287.2,32.6c-0.3-0.3-0.4-0.6-0.4-1c0-0.4,0.1-0.7,0.4-1c0.3-0.3,0.6-0.4,1.1-0.4c0.4,0,0.7,0.1,1,0.4
		c0.3,0.3,0.4,0.6,0.4,1c0,0.4-0.1,0.7-0.4,1c-0.3,0.3-0.6,0.4-1,0.4C287.8,33,287.5,32.9,287.2,32.6z M287.1,57.9V36.4
		c0-0.3,0.1-0.4,0.4-0.4h1.4c0.3,0,0.4,0.1,0.4,0.4v21.6c0,0.3-0.1,0.4-0.4,0.4h-1.4C287.3,58.4,287.1,58.2,287.1,57.9z"/>
	<path class="st0" d="M295.8,57.9V36.4c0-0.3,0.1-0.4,0.4-0.4h1.4c0.3,0,0.4,0.1,0.4,0.4v21.6c0,0.3-0.1,0.4-0.4,0.4h-1.4
		C295.9,58.4,295.8,58.2,295.8,57.9z"/>
	<path class="st0" d="M314.4,42.2h1.4c0.3,0,0.4,0.1,0.4,0.4v15.2c0,2.4-0.7,4.1-2.1,5.2c-1.4,1.1-3.3,1.7-5.7,1.7c-0.4,0-0.8,0-1,0
		c-0.3,0-0.4-0.2-0.4-0.4l0.1-1.3c0-0.3,0.1-0.4,0.4-0.4c2.3,0.1,3.9-0.2,4.9-1s1.5-2,1.5-3.8v-1.1c0-0.1,0-0.1-0.1-0.1
		c0,0-0.1,0-0.1,0.1c-1,1.3-2.4,1.9-4.2,1.9c-1.4,0-2.6-0.4-3.7-1.1c-1.1-0.7-1.8-1.8-2.2-3.2c-0.3-0.9-0.4-2.2-0.4-3.9
		c0-0.9,0-1.7,0.1-2.4c0.1-0.6,0.2-1.2,0.3-1.7c0.4-1.3,1.1-2.3,2.1-3.1c1-0.8,2.2-1.2,3.6-1.2c1.9,0,3.3,0.6,4.3,1.8
		c0,0.1,0.1,0.1,0.1,0.1c0,0,0.1-0.1,0.1-0.1v-1.1C314,42.3,314.1,42.2,314.4,42.2z M313.9,52.3c0-0.5,0-1.2,0-2c0-1.1,0-1.8,0-2.2
		c0-0.4-0.1-0.7-0.2-1c-0.2-0.9-0.6-1.6-1.3-2.2c-0.7-0.6-1.5-0.9-2.5-0.9c-1,0-1.9,0.3-2.5,0.9c-0.7,0.6-1.2,1.3-1.5,2.2
		c-0.2,0.7-0.3,1.7-0.3,3.2c0,1.6,0.1,2.6,0.3,3.2c0.2,0.9,0.7,1.6,1.4,2.2c0.7,0.6,1.6,0.9,2.6,0.9c1,0,1.9-0.3,2.6-0.9
		s1.1-1.3,1.3-2.2C313.9,53.1,313.9,52.8,313.9,52.3z"/>
	<path class="st0" d="M322,38.8c-0.3-0.3-0.5-0.7-0.5-1.2c0-0.5,0.2-0.9,0.5-1.2c0.3-0.3,0.7-0.4,1.2-0.4s0.9,0.1,1.2,0.4
		c0.3,0.3,0.5,0.7,0.5,1.2c0,0.5-0.2,0.9-0.5,1.2c-0.3,0.3-0.7,0.5-1.2,0.5S322.4,39.1,322,38.8z M322.2,57.9V42.6
		c0-0.3,0.1-0.4,0.4-0.4h1.4c0.3,0,0.4,0.1,0.4,0.4v15.4c0,0.3-0.1,0.4-0.4,0.4h-1.4C322.3,58.4,322.2,58.2,322.2,57.9z"/>
	<path class="st0" d="M347.8,43.4c1.1,1,1.6,2.3,1.6,3.9v10.7c0,0.3-0.1,0.4-0.4,0.4h-1.4c-0.3,0-0.4-0.1-0.4-0.4v-1.2
		c0-0.1,0-0.1-0.1-0.1c0,0-0.1,0-0.1,0.1c-0.6,0.6-1.3,1.1-2.2,1.4c-0.9,0.3-1.8,0.5-2.8,0.5c-1.5,0-2.7-0.4-3.8-1.2
		c-1-0.8-1.5-1.9-1.5-3.5c0-1.6,0.6-2.9,1.7-3.8s2.8-1.4,4.8-1.4h3.7c0.1,0,0.2-0.1,0.2-0.2v-1.2c0-1.1-0.3-1.9-0.9-2.6
		c-0.6-0.6-1.6-0.9-2.8-0.9c-1,0-1.8,0.2-2.5,0.6c-0.6,0.4-1,0.9-1.2,1.6c-0.1,0.3-0.2,0.4-0.5,0.3l-1.6-0.2c-0.3,0-0.4-0.2-0.4-0.4
		c0.2-1.2,0.9-2.1,2-2.8c1.1-0.7,2.5-1.1,4.1-1.1C345.3,41.9,346.8,42.4,347.8,43.4z M345.7,55.7c0.9-0.6,1.4-1.5,1.4-2.5v-2.5
		c0-0.1-0.1-0.2-0.2-0.2h-3.4c-1.4,0-2.5,0.3-3.4,0.9c-0.9,0.6-1.3,1.4-1.3,2.4c0,0.9,0.3,1.6,1,2.1s1.5,0.7,2.5,0.7
		C343.7,56.7,344.8,56.4,345.7,55.7z"/>
	<path class="st0" d="M354.9,57.9V36.4c0-0.3,0.1-0.4,0.4-0.4h1.4c0.3,0,0.4,0.1,0.4,0.4v21.6c0,0.3-0.1,0.4-0.4,0.4h-1.4
		C355,58.4,354.9,58.2,354.9,57.9z"/>
	<path class="st0" d="M373.2,43.4c1.1,1,1.6,2.3,1.6,3.9v10.7c0,0.3-0.1,0.4-0.4,0.4h-1.4c-0.3,0-0.4-0.1-0.4-0.4v-1.2
		c0-0.1,0-0.1-0.1-0.1c0,0-0.1,0-0.1,0.1c-0.6,0.6-1.3,1.1-2.2,1.4c-0.9,0.3-1.8,0.5-2.8,0.5c-1.5,0-2.7-0.4-3.8-1.2
		c-1-0.8-1.5-1.9-1.5-3.5c0-1.6,0.6-2.9,1.7-3.8s2.8-1.4,4.8-1.4h3.7c0.1,0,0.2-0.1,0.2-0.2v-1.2c0-1.1-0.3-1.9-0.9-2.6
		c-0.6-0.6-1.6-0.9-2.8-0.9c-1,0-1.8,0.2-2.5,0.6c-0.6,0.4-1,0.9-1.2,1.6c-0.1,0.3-0.2,0.4-0.5,0.3l-1.6-0.2c-0.3,0-0.4-0.2-0.4-0.4
		c0.2-1.2,0.9-2.1,2-2.8c1.1-0.7,2.5-1.1,4.1-1.1C370.6,41.9,372.1,42.4,373.2,43.4z M371.1,55.7c0.9-0.6,1.4-1.5,1.4-2.5v-2.5
		c0-0.1-0.1-0.2-0.2-0.2H369c-1.4,0-2.5,0.3-3.4,0.9c-0.9,0.6-1.3,1.4-1.3,2.4c0,0.9,0.3,1.6,1,2.1s1.5,0.7,2.5,0.7
		C369.1,56.7,370.2,56.4,371.1,55.7z"/>
	<path class="st0" d="M391,43.4c1,1,1.5,2.3,1.5,4v10.5c0,0.3-0.1,0.4-0.4,0.4h-1.4c-0.3,0-0.4-0.1-0.4-0.4v-10
		c0-1.2-0.4-2.2-1.1-2.9c-0.7-0.7-1.6-1.1-2.8-1.1c-1.1,0-2,0.3-2.7,0.9c-0.7,0.6-1.1,1.4-1.2,2.4v10.7c0,0.3-0.1,0.4-0.4,0.4h-1.4
		c-0.3,0-0.4-0.1-0.4-0.4V42.6c0-0.3,0.1-0.4,0.4-0.4h1.4c0.3,0,0.4,0.1,0.4,0.4v1.2c0,0.1,0,0.1,0.1,0.1c0,0,0.1,0,0.1,0
		c0.9-1.3,2.4-1.9,4.3-1.9C388.7,41.9,390,42.4,391,43.4z"/>
	<path class="st0" d="M398.1,57.9V42.6c0-0.3,0.1-0.4,0.4-0.4h1.4c0.3,0,0.4,0.1,0.4,0.4v15.4c0,0.3-0.1,0.4-0.4,0.4h-1.4
		C398.3,58.4,398.1,58.2,398.1,57.9z"/>
	<path class="st0" d="M415.5,57.9c-0.9-0.4-1.6-0.9-2.1-1.5c-0.5-0.6-0.8-1.4-0.8-2.1V54c0-0.3,0.1-0.4,0.4-0.4h1.4
		c0.1,0,0.2,0,0.3,0.1c0.1,0.1,0.1,0.1,0.1,0.2v0.3c0,0.7,0.4,1.3,1.1,1.8c0.7,0.5,1.6,0.8,2.8,0.8s2-0.3,2.7-0.8
		c0.7-0.5,1-1.1,1-1.9c0-0.5-0.2-1-0.5-1.3c-0.3-0.3-0.8-0.6-1.2-0.8c-0.5-0.2-1.2-0.4-2.2-0.7c-1.2-0.3-2.2-0.7-2.9-1
		s-1.4-0.8-2-1.4c-0.5-0.6-0.8-1.4-0.8-2.3c0-1.4,0.5-2.5,1.6-3.3c1.1-0.8,2.5-1.2,4.2-1.2c1.2,0,2.2,0.2,3.1,0.6
		c0.9,0.4,1.6,0.9,2.1,1.6s0.7,1.4,0.7,2.3c0,0.3-0.1,0.4-0.4,0.4h-1.3c-0.3,0-0.4-0.1-0.4-0.2v-0.2c0-0.7-0.3-1.3-1-1.8
		c-0.7-0.5-1.6-0.7-2.8-0.7c-1.1,0-2,0.2-2.6,0.7c-0.7,0.4-1,1-1,1.8c0,0.7,0.3,1.3,0.9,1.7c0.6,0.4,1.6,0.8,3,1.2
		c1.2,0.3,2.2,0.7,3,1c0.8,0.3,1.4,0.8,2,1.4c0.6,0.6,0.8,1.4,0.8,2.4c0,1.4-0.5,2.5-1.6,3.3c-1.1,0.8-2.5,1.2-4.3,1.2
		C417.5,58.5,416.4,58.3,415.5,57.9z"/>
	<path class="st0" d="M438.4,56c0.7-0.4,1.2-1,1.6-1.7c0-0.1,0.1-0.2,0.2-0.2c0.1,0,0.2,0,0.3,0l0.9,0.5c0.3,0.1,0.3,0.3,0.2,0.5
		c-0.5,1.1-1.3,1.9-2.3,2.5c-1,0.6-2.2,0.9-3.6,0.9c-1.5,0-2.8-0.4-3.8-1.1c-1-0.7-1.8-1.7-2.2-2.9c-0.4-1.1-0.6-2.5-0.6-4.4
		c0-0.9,0-1.6,0-2.2c0-0.5,0.1-1.1,0.2-1.5c0.4-1.4,1.1-2.5,2.2-3.3c1.1-0.8,2.4-1.2,4-1.2c1.9,0,3.3,0.5,4.4,1.4
		c1.1,1,1.7,2.3,2,4.1c0.1,0.7,0.2,1.7,0.2,3.2c0,0.3-0.1,0.4-0.4,0.4h-10.2c-0.1,0-0.2,0.1-0.2,0.2c0,1.1,0.1,1.8,0.2,2.3
		c0.2,1,0.7,1.7,1.5,2.3c0.8,0.6,1.7,0.8,2.9,0.8C436.9,56.6,437.7,56.4,438.4,56z M433,44.7c-0.7,0.5-1.1,1.3-1.3,2.2
		c-0.1,0.4-0.2,1.2-0.3,2.2c0,0.1,0.1,0.2,0.2,0.2h8.2c0.1,0,0.2-0.1,0.2-0.2c0-0.9-0.1-1.6-0.2-2c-0.2-1-0.7-1.7-1.4-2.3
		c-0.7-0.6-1.6-0.8-2.7-0.8C434.5,43.9,433.7,44.2,433,44.7z"/>
	<path class="st0" d="M457.7,53.6L457.7,53.6c0.1-0.3,0.2-0.4,0.5-0.4l1.4,0.2c0.3,0,0.4,0.2,0.4,0.5l-0.1,0.5
		c-0.3,1.1-0.9,2.1-1.9,2.8c-1,0.7-2.2,1.2-3.5,1.3c-0.1,0-0.1,0.1-0.1,0.1c0,0,0,0.1,0,0.1c1.1,0.9,1.6,1.9,1.6,2.9
		c0,0.3,0,0.5-0.1,0.7c-0.2,0.7-0.5,1.2-1,1.5c-0.5,0.3-1.1,0.4-1.7,0.4c-0.4,0-0.8-0.1-1.2-0.2c-0.3-0.1-0.4-0.2-0.3-0.5l0.1-0.5
		c0-0.3,0.2-0.4,0.5-0.3c0.3,0,0.4,0.1,0.6,0.1c0.9,0,1.4-0.4,1.6-1.2c0-0.1,0-0.2,0-0.4c0-0.9-0.6-1.8-1.8-2.8l-0.2-0.1
		c-1.2-0.2-2.2-0.7-3.1-1.4c-0.8-0.8-1.4-1.7-1.8-2.9c-0.3-0.9-0.4-2.3-0.4-4c0-1.5,0.1-2.8,0.4-3.9c0.4-1.3,1.1-2.4,2.2-3.2
		c1.1-0.8,2.4-1.2,4-1.2c1.6,0,2.9,0.4,4,1.2c1.1,0.8,1.9,1.8,2.2,2.9c0.1,0.3,0.1,0.6,0.2,0.9V47c0,0.2-0.1,0.4-0.4,0.4l-1.4,0.2
		h-0.1c-0.2,0-0.3-0.1-0.4-0.4c0-0.1,0-0.2-0.1-0.4c-0.2-0.8-0.7-1.5-1.4-2.1c-0.7-0.6-1.7-0.8-2.7-0.8c-1.1,0-2,0.3-2.7,0.8
		c-0.7,0.6-1.2,1.3-1.4,2.3c-0.2,0.8-0.3,1.9-0.3,3.2c0,1.4,0.1,2.5,0.3,3.3c0.2,1,0.7,1.7,1.4,2.3c0.7,0.6,1.6,0.8,2.7,0.8
		c1,0,1.9-0.3,2.7-0.8c0.8-0.5,1.2-1.2,1.4-2.1C457.7,53.7,457.7,53.7,457.7,53.6z"/>
	<path class="st0" d="M465.1,38.8c-0.3-0.3-0.5-0.7-0.5-1.2c0-0.5,0.2-0.9,0.5-1.2c0.3-0.3,0.7-0.4,1.2-0.4s0.9,0.1,1.2,0.4
		c0.3,0.3,0.5,0.7,0.5,1.2c0,0.5-0.2,0.9-0.5,1.2c-0.3,0.3-0.7,0.5-1.2,0.5S465.4,39.1,465.1,38.8z M465.2,57.9V42.6
		c0-0.3,0.1-0.4,0.4-0.4h1.4c0.3,0,0.4,0.1,0.4,0.4v15.4c0,0.3-0.1,0.4-0.4,0.4h-1.4C465.3,58.4,465.2,58.2,465.2,57.9z"/>
	<path class="st0" d="M493.8,43.4c0.9,1,1.4,2.3,1.4,3.9v10.6c0,0.3-0.1,0.4-0.4,0.4h-1.4c-0.3,0-0.4-0.1-0.4-0.4V47.8
		c0-1.2-0.3-2.1-1-2.8c-0.7-0.7-1.6-1-2.6-1c-1.1,0-2,0.3-2.7,1c-0.7,0.7-1,1.6-1,2.8v10.2c0,0.3-0.1,0.4-0.4,0.4h-1.4
		c-0.3,0-0.4-0.1-0.4-0.4V47.8c0-1.2-0.3-2.1-1-2.8c-0.7-0.7-1.5-1-2.7-1c-1.1,0-2,0.3-2.7,1c-0.7,0.7-1,1.6-1,2.8v10.2
		c0,0.3-0.1,0.4-0.4,0.4H474c-0.3,0-0.4-0.1-0.4-0.4V42.6c0-0.3,0.1-0.4,0.4-0.4h1.4c0.3,0,0.4,0.1,0.4,0.4v1.1c0,0.1,0,0.1,0.1,0.1
		c0,0,0.1,0,0.1-0.1c0.5-0.6,1.1-1.1,1.8-1.4c0.7-0.3,1.5-0.4,2.4-0.4c1.1,0,2,0.2,2.8,0.7c0.8,0.4,1.4,1.1,1.8,1.9
		c0.1,0.1,0.1,0.1,0.2,0c0.5-0.9,1.1-1.5,2-2c0.9-0.4,1.8-0.6,2.9-0.6C491.6,41.9,492.8,42.4,493.8,43.4z"/>
	<path class="st0" d="M501,38.8c-0.3-0.3-0.5-0.7-0.5-1.2c0-0.5,0.2-0.9,0.5-1.2c0.3-0.3,0.7-0.4,1.2-0.4s0.9,0.1,1.2,0.4
		c0.3,0.3,0.5,0.7,0.5,1.2c0,0.5-0.2,0.9-0.5,1.2c-0.3,0.3-0.7,0.5-1.2,0.5S501.3,39.1,501,38.8z M501.1,57.9V42.6
		c0-0.3,0.1-0.4,0.4-0.4h1.4c0.3,0,0.4,0.1,0.4,0.4v15.4c0,0.3-0.1,0.4-0.4,0.4h-1.4C501.2,58.4,501.1,58.2,501.1,57.9z"/>
</g>
<g>
	<path class="st0" d="M574.6,57.4c-1.2-0.5-2.1-1.2-2.7-2.1c-0.6-0.9-0.9-2-0.9-3.2v-0.9c0-0.3,0.1-0.4,0.4-0.4h1.4
		c0.3,0,0.4,0.1,0.4,0.4V52c0,1.2,0.5,2.2,1.5,3s2.4,1.2,4.1,1.2c1.6,0,2.9-0.3,3.7-1c0.9-0.7,1.3-1.6,1.3-2.8
		c0-0.7-0.2-1.4-0.6-1.9c-0.4-0.5-1-1-1.8-1.5s-2-1-3.5-1.6c-1.6-0.6-2.8-1.2-3.7-1.7c-0.9-0.5-1.6-1.1-2.1-1.9
		c-0.5-0.8-0.8-1.7-0.8-2.9c0-1.8,0.6-3.2,1.9-4.2s3-1.5,5.2-1.5c2.3,0,4.2,0.6,5.6,1.7c1.4,1.1,2,2.6,2,4.4v0.6
		c0,0.3-0.1,0.4-0.4,0.4h-1.4c-0.3,0-0.4-0.1-0.4-0.4v-0.5c0-1.2-0.5-2.3-1.4-3c-1-0.8-2.3-1.2-4.1-1.2c-1.5,0-2.7,0.3-3.5,0.9
		c-0.8,0.6-1.2,1.5-1.2,2.7c0,0.8,0.2,1.4,0.6,1.9c0.4,0.5,1,0.9,1.7,1.3c0.7,0.4,1.9,0.9,3.4,1.5c1.6,0.6,2.8,1.2,3.8,1.8
		c1,0.6,1.7,1.2,2.3,2c0.6,0.8,0.9,1.8,0.9,2.9c0,1.8-0.7,3.2-2,4.3s-3.1,1.6-5.5,1.6C577.1,58.2,575.7,57.9,574.6,57.4z"/>
	<path class="st0" d="M600,55.5c0.7-0.4,1.2-1,1.6-1.7c0-0.1,0.1-0.2,0.2-0.2c0.1,0,0.2,0,0.3,0l0.9,0.5c0.3,0.1,0.3,0.3,0.2,0.5
		c-0.5,1.1-1.3,1.9-2.3,2.5c-1,0.6-2.2,0.9-3.6,0.9c-1.5,0-2.8-0.4-3.8-1.1c-1-0.7-1.8-1.7-2.2-2.9c-0.4-1.1-0.6-2.5-0.6-4.4
		c0-0.9,0-1.6,0-2.2c0-0.5,0.1-1.1,0.2-1.5c0.4-1.4,1.1-2.5,2.2-3.3s2.4-1.2,4-1.2c1.9,0,3.3,0.5,4.4,1.4c1.1,1,1.7,2.3,2,4.1
		c0.1,0.7,0.2,1.7,0.2,3.2c0,0.3-0.1,0.4-0.4,0.4h-10.2c-0.1,0-0.2,0.1-0.2,0.2c0,1.1,0.1,1.8,0.2,2.3c0.2,1,0.7,1.7,1.5,2.3
		c0.8,0.6,1.7,0.8,2.9,0.8C598.5,56.2,599.3,56,600,55.5z M594.6,44.3c-0.7,0.5-1.1,1.3-1.3,2.2c-0.1,0.4-0.2,1.2-0.3,2.2
		c0,0.1,0.1,0.2,0.2,0.2h8.2c0.1,0,0.2-0.1,0.2-0.2c0-0.9-0.1-1.6-0.2-2c-0.2-1-0.7-1.7-1.4-2.3c-0.7-0.6-1.6-0.8-2.7-0.8
		C596.1,43.4,595.3,43.7,594.6,44.3z"/>
	<path class="st0" d="M612.4,57.5l-5.2-15.4c0,0,0-0.1,0-0.2c0-0.1,0-0.2,0.1-0.2c0.1-0.1,0.2-0.1,0.3-0.1h1.6
		c0.2,0,0.4,0.1,0.4,0.4l4,12.4c0,0.1,0.1,0.1,0.1,0.1s0.1,0,0.1-0.1l4-12.4c0.1-0.2,0.2-0.4,0.4-0.4l1.6,0c0.1,0,0.3,0,0.3,0.1
		c0.1,0.1,0.1,0.2,0,0.4l-5.2,15.3c-0.1,0.2-0.2,0.4-0.5,0.4h-1.7C612.6,57.9,612.5,57.8,612.4,57.5z"/>
	<path class="st0" d="M624.8,38.3c-0.3-0.3-0.5-0.7-0.5-1.2c0-0.5,0.2-0.9,0.5-1.2c0.3-0.3,0.7-0.4,1.2-0.4c0.5,0,0.9,0.1,1.2,0.4
		c0.3,0.3,0.5,0.7,0.5,1.2c0,0.5-0.2,0.9-0.5,1.2c-0.3,0.3-0.7,0.5-1.2,0.5C625.6,38.8,625.1,38.6,624.8,38.3z M625,57.5V42.1
		c0-0.3,0.1-0.4,0.4-0.4h1.4c0.3,0,0.4,0.1,0.4,0.4v15.4c0,0.3-0.1,0.4-0.4,0.4h-1.4C625.1,57.9,625,57.8,625,57.5z"/>
	<path class="st0" d="M633.3,57.5V35.9c0-0.3,0.1-0.4,0.4-0.4h1.4c0.3,0,0.4,0.1,0.4,0.4v21.6c0,0.3-0.1,0.4-0.4,0.4h-1.4
		C633.5,57.9,633.3,57.8,633.3,57.5z"/>
	<path class="st0" d="M650.3,55.5c0.7-0.4,1.2-1,1.6-1.7c0-0.1,0.1-0.2,0.2-0.2c0.1,0,0.2,0,0.3,0l0.9,0.5c0.3,0.1,0.3,0.3,0.2,0.5
		c-0.5,1.1-1.3,1.9-2.3,2.5c-1,0.6-2.2,0.9-3.6,0.9c-1.5,0-2.8-0.4-3.8-1.1c-1-0.7-1.8-1.7-2.2-2.9c-0.4-1.1-0.6-2.5-0.6-4.4
		c0-0.9,0-1.6,0-2.2c0-0.5,0.1-1.1,0.2-1.5c0.4-1.4,1.1-2.5,2.2-3.3s2.4-1.2,4-1.2c1.9,0,3.3,0.5,4.4,1.4c1.1,1,1.7,2.3,2,4.1
		c0.1,0.7,0.2,1.7,0.2,3.2c0,0.3-0.1,0.4-0.4,0.4h-10.2c-0.1,0-0.2,0.1-0.2,0.2c0,1.1,0.1,1.8,0.2,2.3c0.2,1,0.7,1.7,1.5,2.3
		c0.8,0.6,1.7,0.8,2.9,0.8C648.8,56.2,649.7,56,650.3,55.5z M644.9,44.3c-0.7,0.5-1.1,1.3-1.3,2.2c-0.1,0.4-0.2,1.2-0.3,2.2
		c0,0.1,0.1,0.2,0.2,0.2h8.2c0.1,0,0.2-0.1,0.2-0.2c0-0.9-0.1-1.6-0.2-2c-0.2-1-0.7-1.7-1.4-2.3c-0.7-0.6-1.6-0.8-2.7-0.8
		C646.5,43.4,645.6,43.7,644.9,44.3z"/>
	<path class="st0" d="M670.2,43c1,1,1.5,2.3,1.5,4v10.5c0,0.3-0.1,0.4-0.4,0.4h-1.4c-0.3,0-0.4-0.1-0.4-0.4v-10
		c0-1.2-0.4-2.2-1.1-2.9c-0.7-0.7-1.6-1.1-2.8-1.1c-1.1,0-2,0.3-2.7,0.9c-0.7,0.6-1.1,1.4-1.2,2.4v10.7c0,0.3-0.1,0.4-0.4,0.4h-1.4
		c-0.3,0-0.4-0.1-0.4-0.4V42.1c0-0.3,0.1-0.4,0.4-0.4h1.4c0.3,0,0.4,0.1,0.4,0.4v1.2c0,0.1,0,0.1,0.1,0.1c0,0,0.1,0,0.1,0
		c0.9-1.3,2.4-1.9,4.3-1.9C667.9,41.5,669.2,42,670.2,43z"/>
	<path class="st0" d="M691.5,43.6h-3.5c-0.1,0-0.2,0.1-0.2,0.2v9.3c0,1,0.2,1.7,0.7,2.2c0.5,0.4,1.2,0.6,2.2,0.6h0.7
		c0.3,0,0.4,0.1,0.4,0.4v1.1c0,0.3-0.1,0.4-0.4,0.4h-1.1c-1.5,0-2.7-0.3-3.5-0.9c-0.8-0.6-1.2-1.6-1.2-3.2v-10
		c0-0.1-0.1-0.2-0.2-0.2h-1.8c-0.3,0-0.4-0.1-0.4-0.4v-1.1c0-0.3,0.1-0.4,0.4-0.4h1.8c0.1,0,0.2-0.1,0.2-0.2V38
		c0-0.3,0.1-0.4,0.4-0.4h1.4c0.3,0,0.4,0.1,0.4,0.4v3.6c0,0.1,0.1,0.2,0.2,0.2h3.5c0.3,0,0.4,0.1,0.4,0.4v1.1
		C692,43.5,691.8,43.6,691.5,43.6z"/>
	<path class="st0" d="M707.4,41.7h1.4c0.3,0,0.4,0.1,0.4,0.4v15.4c0,0.3-0.1,0.4-0.4,0.4h-1.4c-0.3,0-0.4-0.1-0.4-0.4v-1.2
		c0-0.1,0-0.1-0.1-0.1c0,0-0.1,0-0.1,0.1c-0.9,1.3-2.3,1.9-4.2,1.9c-1,0-2-0.2-2.8-0.6c-0.9-0.4-1.5-1-2-1.8
		c-0.5-0.8-0.8-1.7-0.8-2.8V42.1c0-0.3,0.1-0.4,0.4-0.4h1.4c0.3,0,0.4,0.1,0.4,0.4v10c0,1.2,0.3,2.2,1,2.9c0.7,0.7,1.6,1.1,2.8,1.1
		c1.2,0,2.2-0.4,2.9-1.1c0.7-0.7,1.1-1.7,1.1-2.9v-10C706.9,41.8,707.1,41.7,707.4,41.7z M699.3,38.3c-0.3-0.3-0.4-0.6-0.4-1.1
		s0.1-0.8,0.4-1.1s0.7-0.4,1.1-0.4c0.4,0,0.8,0.1,1.1,0.4c0.3,0.3,0.4,0.6,0.4,1.1s-0.1,0.8-0.4,1.1c-0.3,0.3-0.6,0.4-1.1,0.4
		C700,38.7,699.6,38.6,699.3,38.3z M704.7,38.3c-0.3-0.3-0.4-0.6-0.4-1.1s0.1-0.8,0.4-1.1s0.6-0.4,1.1-0.4c0.4,0,0.8,0.1,1.1,0.4
		s0.4,0.6,0.4,1.1s-0.1,0.8-0.4,1.1c-0.3,0.3-0.6,0.4-1.1,0.4C705.4,38.7,705,38.6,704.7,38.3z"/>
	<path class="st0" d="M723.4,41.9c0.2,0.1,0.3,0.3,0.2,0.5l-0.3,1.4c-0.1,0.3-0.2,0.3-0.5,0.3c-0.4-0.1-0.9-0.2-1.6-0.2
		c-1.1,0-2,0.5-2.8,1.2c-0.7,0.8-1.1,1.8-1.1,3v9.3c0,0.3-0.1,0.4-0.4,0.4h-1.4c-0.3,0-0.4-0.1-0.4-0.4V42.1c0-0.3,0.1-0.4,0.4-0.4
		h1.4c0.3,0,0.4,0.1,0.4,0.4v1.8c0,0.1,0,0.1,0,0.1c0,0,0.1,0,0.1-0.1c0.4-0.8,1-1.4,1.7-1.8s1.5-0.6,2.4-0.6
		C722.3,41.5,722.9,41.7,723.4,41.9z"/>
	<path class="st0" d="M736.9,57.5c-0.9-0.4-1.6-0.9-2.1-1.5c-0.5-0.6-0.8-1.4-0.8-2.1v-0.3c0-0.3,0.1-0.4,0.4-0.4h1.4
		c0.1,0,0.2,0,0.3,0.1c0.1,0.1,0.1,0.1,0.1,0.2v0.3c0,0.7,0.4,1.3,1.1,1.8s1.6,0.8,2.8,0.8s2-0.3,2.7-0.8c0.7-0.5,1-1.1,1-1.9
		c0-0.5-0.2-1-0.5-1.3c-0.3-0.3-0.8-0.6-1.2-0.8c-0.5-0.2-1.2-0.4-2.2-0.7c-1.2-0.3-2.2-0.7-2.9-1c-0.8-0.3-1.4-0.8-2-1.4
		c-0.5-0.6-0.8-1.4-0.8-2.3c0-1.4,0.5-2.5,1.6-3.3c1.1-0.8,2.5-1.2,4.2-1.2c1.2,0,2.2,0.2,3.1,0.6c0.9,0.4,1.6,0.9,2.1,1.6
		s0.7,1.4,0.7,2.3c0,0.3-0.1,0.4-0.4,0.4h-1.3c-0.3,0-0.4-0.1-0.4-0.2V46c0-0.7-0.3-1.3-1-1.8c-0.7-0.5-1.6-0.7-2.8-0.7
		c-1.1,0-2,0.2-2.6,0.7c-0.7,0.4-1,1-1,1.8c0,0.7,0.3,1.3,0.9,1.7c0.6,0.4,1.6,0.8,3,1.2c1.2,0.3,2.2,0.7,3,1c0.8,0.3,1.4,0.8,2,1.4
		c0.6,0.6,0.8,1.4,0.8,2.4c0,1.4-0.5,2.5-1.6,3.3c-1.1,0.8-2.5,1.2-4.3,1.2C738.9,58.1,737.8,57.9,736.9,57.5z"/>
	<path class="st0" d="M759.8,55.5c0.7-0.4,1.2-1,1.6-1.7c0-0.1,0.1-0.2,0.2-0.2c0.1,0,0.2,0,0.3,0l0.9,0.5c0.3,0.1,0.3,0.3,0.2,0.5
		c-0.5,1.1-1.3,1.9-2.3,2.5c-1,0.6-2.2,0.9-3.6,0.9c-1.5,0-2.8-0.4-3.8-1.1c-1-0.7-1.8-1.7-2.2-2.9c-0.4-1.1-0.6-2.5-0.6-4.4
		c0-0.9,0-1.6,0-2.2s0.1-1.1,0.2-1.5c0.4-1.4,1.1-2.5,2.2-3.3c1.1-0.8,2.4-1.2,4-1.2c1.9,0,3.3,0.5,4.4,1.4c1.1,1,1.7,2.3,2,4.1
		c0.1,0.7,0.2,1.7,0.2,3.2c0,0.3-0.1,0.4-0.4,0.4h-10.2c-0.1,0-0.2,0.1-0.2,0.2c0,1.1,0.1,1.8,0.2,2.3c0.2,1,0.7,1.7,1.5,2.3
		c0.8,0.6,1.7,0.8,2.9,0.8C758.2,56.2,759.1,56,759.8,55.5z M754.3,44.3c-0.7,0.5-1.1,1.3-1.3,2.2c-0.1,0.4-0.2,1.2-0.3,2.2
		c0,0.1,0.1,0.2,0.2,0.2h8.2c0.1,0,0.2-0.1,0.2-0.2c0-0.9-0.1-1.6-0.2-2c-0.2-1-0.7-1.7-1.4-2.3c-0.7-0.6-1.6-0.8-2.7-0.8
		C755.9,43.4,755,43.7,754.3,44.3z"/>
	<path class="st0" d="M779.1,53.1L779.1,53.1c0.1-0.3,0.2-0.4,0.5-0.4L781,53c0.3,0,0.4,0.2,0.4,0.5l-0.1,0.5
		c-0.3,1.1-0.9,2.1-1.9,2.8c-1,0.7-2.2,1.2-3.5,1.3c-0.1,0-0.1,0.1-0.1,0.1c0,0,0,0.1,0,0.1c1.1,0.9,1.6,1.9,1.6,2.9
		c0,0.3,0,0.5-0.1,0.7c-0.2,0.7-0.5,1.2-1,1.5s-1.1,0.4-1.7,0.4c-0.4,0-0.8-0.1-1.2-0.2c-0.3-0.1-0.4-0.2-0.3-0.5l0.1-0.5
		c0-0.3,0.2-0.4,0.5-0.3c0.3,0,0.4,0.1,0.6,0.1c0.9,0,1.4-0.4,1.6-1.2c0-0.1,0-0.2,0-0.4c0-0.9-0.6-1.8-1.8-2.8l-0.2-0.1
		c-1.2-0.2-2.2-0.7-3.1-1.4c-0.8-0.8-1.4-1.7-1.8-2.9c-0.3-0.9-0.4-2.3-0.4-4c0-1.5,0.1-2.8,0.4-3.9c0.4-1.3,1.1-2.4,2.2-3.2
		s2.4-1.2,4-1.2c1.6,0,2.9,0.4,4,1.2c1.1,0.8,1.9,1.8,2.2,2.9c0.1,0.3,0.1,0.6,0.2,0.9v0.1c0,0.2-0.1,0.4-0.4,0.4l-1.4,0.2h-0.1
		c-0.2,0-0.3-0.1-0.4-0.4c0-0.1,0-0.2-0.1-0.4c-0.2-0.8-0.7-1.5-1.4-2.1c-0.7-0.6-1.7-0.8-2.7-0.8c-1.1,0-2,0.3-2.7,0.8
		c-0.7,0.6-1.2,1.3-1.4,2.3c-0.2,0.8-0.3,1.9-0.3,3.2c0,1.4,0.1,2.5,0.3,3.3c0.2,1,0.7,1.7,1.4,2.3c0.7,0.6,1.6,0.8,2.7,0.8
		c1,0,1.9-0.3,2.7-0.8c0.8-0.5,1.2-1.2,1.4-2.1C779.1,53.2,779.1,53.2,779.1,53.1z"/>
	<path class="st0" d="M786.4,38.3c-0.3-0.3-0.5-0.7-0.5-1.2c0-0.5,0.2-0.9,0.5-1.2c0.3-0.3,0.7-0.4,1.2-0.4s0.9,0.1,1.2,0.4
		c0.3,0.3,0.5,0.7,0.5,1.2c0,0.5-0.2,0.9-0.5,1.2c-0.3,0.3-0.7,0.5-1.2,0.5S786.7,38.6,786.4,38.3z M786.6,57.5V42.1
		c0-0.3,0.1-0.4,0.4-0.4h1.4c0.3,0,0.4,0.1,0.4,0.4v15.4c0,0.3-0.1,0.4-0.4,0.4H787C786.7,57.9,786.6,57.8,786.6,57.5z"/>
	<path class="st0" d="M815.1,42.9c0.9,1,1.4,2.3,1.4,3.9v10.6c0,0.3-0.1,0.4-0.4,0.4h-1.4c-0.3,0-0.4-0.1-0.4-0.4V47.3
		c0-1.2-0.3-2.1-1-2.8c-0.7-0.7-1.6-1-2.6-1c-1.1,0-2,0.3-2.7,1c-0.7,0.7-1,1.6-1,2.8v10.2c0,0.3-0.1,0.4-0.4,0.4H805
		c-0.3,0-0.4-0.1-0.4-0.4V47.3c0-1.2-0.3-2.1-1-2.8c-0.7-0.7-1.5-1-2.7-1c-1.1,0-2,0.3-2.7,1c-0.7,0.7-1,1.6-1,2.8v10.2
		c0,0.3-0.1,0.4-0.4,0.4h-1.4c-0.3,0-0.4-0.1-0.4-0.4V42.1c0-0.3,0.1-0.4,0.4-0.4h1.4c0.3,0,0.4,0.1,0.4,0.4v1.1
		c0,0.1,0,0.1,0.1,0.1c0,0,0.1,0,0.1-0.1c0.5-0.6,1.1-1.1,1.8-1.4c0.7-0.3,1.5-0.4,2.4-0.4c1.1,0,2,0.2,2.8,0.7
		c0.8,0.4,1.4,1.1,1.8,1.9c0.1,0.1,0.1,0.1,0.2,0c0.5-0.9,1.1-1.5,2-2c0.9-0.4,1.8-0.6,2.9-0.6C812.9,41.5,814.2,42,815.1,42.9z"/>
	<path class="st0" d="M822.3,38.3c-0.3-0.3-0.5-0.7-0.5-1.2c0-0.5,0.2-0.9,0.5-1.2c0.3-0.3,0.7-0.4,1.2-0.4c0.5,0,0.9,0.1,1.2,0.4
		c0.3,0.3,0.5,0.7,0.5,1.2c0,0.5-0.2,0.9-0.5,1.2c-0.3,0.3-0.7,0.5-1.2,0.5C823.1,38.8,822.6,38.6,822.3,38.3z M822.5,57.5V42.1
		c0-0.3,0.1-0.4,0.4-0.4h1.4c0.3,0,0.4,0.1,0.4,0.4v15.4c0,0.3-0.1,0.4-0.4,0.4h-1.4C822.6,57.9,822.5,57.8,822.5,57.5z"/>
</g>
<polygon class="st0" points="263.6,45.1 230,45.1 230,50.1 263.6,50.1 265.5,47.6 "/>
<polygon class="st0" points="553.6,45.1 520,45.1 520,50.1 553.6,50.1 555.5,47.6 "/>
<polygon class="st0" points="524.6,173.5 491,173.5 491,178.5 524.6,178.5 526.5,176 "/>
<path class="st0" d="M61.5,167.2c-0.1,0-0.3,0-0.4-0.1c-9.1-7.2-12.2-13.1-11.5-19.9c1.4-14,24.4-25.2,70.3-34
	c38.9-7.5,93.1-13.3,165.8-17.7c132.4-8.1,300.2-9.8,435.1-11.2c72.6-0.8,135.2-1.4,182-2.9c50.4-1.6,69.9-3.8,76.4-5.7
	c0.4-0.1,0.5-0.8,0-0.9c-3.6-1.3-11.8-3.5-31-6.3c-23.3-3.5-58.6-7.3-104.9-11.5c-0.3,0-0.5-0.3-0.4-0.5l0.4-4
	c0-0.3,0.3-0.5,0.5-0.4c49.3,4.4,86.2,8.5,109.5,12.2c31,4.8,33.4,8,33.3,11.3c-0.1,3.4-3.7,5.6-22.6,7.6
	c-12.5,1.3-30.7,2.3-55.8,3.1c-47.2,1.6-112.2,2.2-187.3,3c-134.8,1.4-302.6,3.2-434.9,11.2c-72.5,4.4-126.5,10.2-165.1,17.6
	c-53.3,10.2-65.5,21.7-66.2,29.6c-0.5,4.9,2.4,9.7,10,15.8c0.2,0.1,0.2,0.3,0.2,0.5l-0.7,2.3c0,0.2-0.2,0.3-0.4,0.3L61.5,167.2z"/>
</svg>
