<svg xmlns="http://www.w3.org/2000/svg" viewBox="0 0 25.359 24.738"><defs><style>.a{fill:#c4c4c4;}</style></defs><path class="a" d="M23.658,11.68a12.624,12.624,0,0,0-4.614-4.614,12.4,12.4,0,0,0-6.364-1.7,12.4,12.4,0,0,0-6.364,1.7A12.623,12.623,0,0,0,1.7,11.68,12.4,12.4,0,0,0,0,18.044,12.322,12.322,0,0,0,2.419,25.5a12.418,12.418,0,0,0,6.249,4.581.739.739,0,0,0,.66-.115.646.646,0,0,0,.215-.5q0-.05-.008-.891t-.008-1.469l-.38.066a4.844,4.844,0,0,1-.916.058,6.981,6.981,0,0,1-1.147-.116,2.564,2.564,0,0,1-1.106-.495,2.1,2.1,0,0,1-.726-1.015l-.165-.38a4.125,4.125,0,0,0-.52-.842,1.992,1.992,0,0,0-.718-.627l-.116-.083a1.212,1.212,0,0,1-.215-.2.906.906,0,0,1-.148-.231q-.05-.116.083-.19a1.071,1.071,0,0,1,.479-.074l.33.049a2.41,2.41,0,0,1,.817.4,2.665,2.665,0,0,1,.8.858,2.91,2.91,0,0,0,.916,1.032,1.944,1.944,0,0,0,1.081.355,4.7,4.7,0,0,0,.941-.082,3.284,3.284,0,0,0,.743-.248,2.675,2.675,0,0,1,.809-1.7,11.3,11.3,0,0,1-1.692-.3A6.738,6.738,0,0,1,7.124,22.7a4.444,4.444,0,0,1-1.329-1.106,5.316,5.316,0,0,1-.867-1.734,8.243,8.243,0,0,1-.338-2.476,4.815,4.815,0,0,1,1.3-3.4,4.438,4.438,0,0,1,.115-3.368,2.313,2.313,0,0,1,1.42.223,9.926,9.926,0,0,1,1.379.636q.438.264.7.446a11.923,11.923,0,0,1,6.34,0l.627-.4A8.885,8.885,0,0,1,18,10.8a2.164,2.164,0,0,1,1.338-.181,4.4,4.4,0,0,1,.132,3.368,4.816,4.816,0,0,1,1.3,3.4,8.336,8.336,0,0,1-.338,2.484,5.109,5.109,0,0,1-.875,1.734,4.615,4.615,0,0,1-1.338,1.1,6.751,6.751,0,0,1-1.552.644,11.292,11.292,0,0,1-1.692.3,2.941,2.941,0,0,1,.858,2.344v3.483a.658.658,0,0,0,.207.5.717.717,0,0,0,.652.115A12.416,12.416,0,0,0,22.94,25.5a12.325,12.325,0,0,0,2.419-7.454A12.413,12.413,0,0,0,23.658,11.68Z" transform="translate(0 -5.365)"/></svg>