<svg xmlns="http://www.w3.org/2000/svg" viewBox="0 0 23.103 23.099"><defs><style>.a{fill:#c4c4c4;}</style></defs><g transform="translate(-135 -535.572)"><path class="a" d="M15.647,6.181c3.085,0,3.447.014,4.667.069a6.3,6.3,0,0,1,2.145.4,3.584,3.584,0,0,1,1.329.862A3.528,3.528,0,0,1,24.65,8.84a6.42,6.42,0,0,1,.4,2.145c.055,1.219.069,1.581.069,4.667s-.014,3.447-.069,4.667a6.3,6.3,0,0,1-.4,2.145,3.584,3.584,0,0,1-.862,1.329,3.528,3.528,0,0,1-1.329.862,6.42,6.42,0,0,1-2.145.4c-1.219.055-1.581.069-4.667.069s-3.447-.014-4.667-.069a6.3,6.3,0,0,1-2.145-.4,3.584,3.584,0,0,1-1.329-.862,3.528,3.528,0,0,1-.862-1.329,6.42,6.42,0,0,1-.4-2.145c-.055-1.219-.069-1.581-.069-4.667s.014-3.447.069-4.667a6.3,6.3,0,0,1,.4-2.145A3.584,3.584,0,0,1,7.506,7.51a3.528,3.528,0,0,1,1.329-.862,6.42,6.42,0,0,1,2.145-.4c1.219-.06,1.581-.069,4.667-.069m0-2.081c-3.135,0-3.53.014-4.763.069a8.464,8.464,0,0,0-2.8.536A5.628,5.628,0,0,0,6.039,6.039,5.728,5.728,0,0,0,4.705,8.083a8.47,8.47,0,0,0-.536,2.805c-.055,1.229-.069,1.623-.069,4.758s.014,3.53.069,4.763a8.52,8.52,0,0,0,.536,2.805A5.628,5.628,0,0,0,6.039,25.26a5.728,5.728,0,0,0,2.044,1.334,8.47,8.47,0,0,0,2.805.536c1.233.055,1.623.069,4.763.069s3.53-.014,4.763-.069a8.52,8.52,0,0,0,2.805-.536,5.629,5.629,0,0,0,2.044-1.334A5.728,5.728,0,0,0,26.6,23.215a8.47,8.47,0,0,0,.536-2.805c.055-1.233.069-1.623.069-4.763s-.014-3.53-.069-4.763A8.52,8.52,0,0,0,26.6,8.079a5.629,5.629,0,0,0-1.334-2.044A5.728,5.728,0,0,0,23.22,4.7a8.47,8.47,0,0,0-2.805-.536c-1.238-.05-1.632-.064-4.767-.064Z" transform="translate(130.9 531.472)"/><path class="a" d="M132.532,126.6a5.932,5.932,0,1,0,5.932,5.932A5.933,5.933,0,0,0,132.532,126.6Zm0,9.782a3.851,3.851,0,1,1,3.851-3.851A3.85,3.85,0,0,1,132.532,136.382Z" transform="translate(14.015 414.587)"/><circle class="a" cx="1.384" cy="1.384" r="1.384" transform="translate(151.328 539.569)"/></g></svg>