<svg xmlns="http://www.w3.org/2000/svg" viewBox="0 0 26.56 21.584"><defs><style>.a{fill:#c4c4c4;}</style></defs><path class="a" d="M26.561,50.511a10.9,10.9,0,0,1-3.13.858,5.466,5.466,0,0,0,2.4-3.015,10.908,10.908,0,0,1-3.46,1.322,5.454,5.454,0,0,0-9.285,4.97A15.47,15.47,0,0,1,1.85,48.953a5.455,5.455,0,0,0,1.686,7.275,5.427,5.427,0,0,1-2.468-.682c0,.023,0,.046,0,.069a5.453,5.453,0,0,0,4.371,5.343,5.455,5.455,0,0,1-2.461.093,5.455,5.455,0,0,0,5.09,3.784A10.932,10.932,0,0,1,1.3,67.168,11.03,11.03,0,0,1,0,67.092,15.422,15.422,0,0,0,8.354,69.54a15.4,15.4,0,0,0,15.5-15.5q0-.354-.016-.7A11.07,11.07,0,0,0,26.561,50.511Z" transform="translate(-0.001 -47.956)"/></svg>