<?xml version="1.0" standalone="no"?>
<!DOCTYPE svg PUBLIC "-//W3C//DTD SVG 20010904//EN"
 "http://www.w3.org/TR/2001/REC-SVG-20010904/DTD/svg10.dtd">
<svg version="1.0" xmlns="http://www.w3.org/2000/svg"
 width="700.000000pt" height="700.000000pt" viewBox="0 0 700.000000 700.000000"
 preserveAspectRatio="xMidYMid meet">
<metadata>
Created by potrace 1.11, written by Peter Selinger 2001-2013
</metadata>
<g transform="translate(0.000000,700.000000) scale(0.100000,-0.100000)"
fill="#000000" stroke="none">
<path d="M3278 6995 c-2 -1 -37 -5 -78 -8 -161 -13 -381 -49 -515 -83 -11 -3
-31 -7 -45 -10 -76 -15 -344 -102 -445 -144 -629 -263 -1111 -635 -1504 -1160
-147 -197 -309 -474 -396 -680 -15 -36 -31 -74 -36 -85 -71 -165 -151 -431
-189 -630 -28 -146 -30 -155 -36 -210 -3 -27 -7 -61 -10 -75 -25 -151 -25
-699 1 -825 3 -11 7 -42 10 -70 2 -27 7 -61 10 -75 3 -14 7 -38 10 -55 4 -27
17 -98 29 -150 69 -317 210 -685 363 -949 26 -45 52 -90 58 -101 38 -69 189
-286 262 -375 133 -166 319 -355 489 -500 97 -82 375 -280 393 -280 6 0 11 -4
11 -10 0 -5 4 -10 9 -10 5 0 45 -21 88 -46 80 -48 350 -181 413 -204 19 -7 49
-18 66 -26 70 -31 327 -111 432 -135 78 -18 84 -19 162 -34 250 -48 390 -60
680 -60 183 0 348 9 405 20 11 2 45 7 75 11 245 28 620 129 835 223 348 152
546 266 795 455 378 286 705 662 933 1071 69 125 177 349 177 369 0 8 4 17 10
21 5 3 14 20 19 38 5 18 25 77 45 132 92 257 156 558 184 855 14 155 5 650
-13 720 -2 8 -7 42 -10 75 -4 32 -8 62 -10 65 -2 3 -6 24 -9 46 -4 22 -9 51
-11 64 -3 14 -8 39 -11 55 -11 66 -65 266 -97 365 -114 351 -299 707 -520
1002 -381 511 -918 926 -1482 1148 -11 4 -37 15 -58 25 -142 62 -504 159 -712
191 -27 4 -52 8 -55 9 -3 1 -41 5 -85 10 -44 4 -89 10 -100 12 -24 4 -532 12
-537 8z m417 -1159 c84 -7 114 -11 181 -21 146 -21 359 -82 534 -151 69 -28
245 -116 248 -126 2 -4 8 -8 13 -8 14 0 162 -96 239 -154 297 -226 530 -507
690 -831 51 -104 108 -238 114 -270 1 -5 4 -14 8 -20 11 -18 77 -278 84 -330
l6 -50 -89 -46 c-84 -44 -235 -122 -448 -234 -55 -29 -148 -78 -207 -109 -60
-31 -154 -80 -210 -110 -57 -29 -204 -106 -328 -171 -124 -65 -270 -141 -325
-170 -108 -57 -241 -127 -427 -224 -337 -175 -396 -206 -603 -316 -44 -23
-143 -75 -220 -115 -77 -40 -205 -106 -285 -148 -80 -41 -158 -82 -175 -92
-28 -16 -172 -91 -499 -261 l-130 -67 -59 61 c-32 34 -73 80 -90 101 -18 22
-36 44 -42 50 -33 36 -130 176 -182 261 -222 369 -338 791 -337 1220 1 94 11
255 20 315 87 575 349 1063 769 1436 324 288 739 487 1155 554 41 7 84 14 95
16 11 2 67 7 125 10 58 4 106 7 107 8 5 4 192 -2 268 -8z"/>
</g>
</svg>
